<svg width="13" height="12" viewBox="0 0 13 12" fill="none" xmlns="http://www.w3.org/2000/svg">
<path opacity="0.5" d="M6.29815 0.0737305C3.02015 0.0737305 0.358154 2.73573 0.358154 6.01373C0.358154 9.29173 3.02015 11.9537 6.29815 11.9537C9.57615 11.9537 12.2382 9.29173 12.2382 6.01373C12.2382 2.73573 9.57615 0.0737305 6.29815 0.0737305ZM6.29815 10.9197C3.59215 10.9197 1.41415 8.74173 1.41415 6.01373C1.41415 3.30773 3.59215 1.12973 6.29815 1.12973C9.00415 1.12973 11.1822 3.30773 11.1822 6.01373C11.1822 8.74173 9.00415 10.9197 6.29815 10.9197ZM6.32015 4.16573C7.04615 4.16573 7.61815 4.56173 7.86015 5.19973H9.22415C8.91615 3.81373 7.70615 2.93373 6.32015 2.93373C4.58215 2.93373 3.26215 4.25373 3.26215 6.01373C3.26215 7.77373 4.58215 9.09373 6.32015 9.09373C7.70615 9.09373 8.91615 8.21373 9.22415 6.82773H7.86015C7.61815 7.48773 7.04615 7.86173 6.32015 7.86173C5.30815 7.86173 4.56015 7.11373 4.56015 6.01373C4.56015 4.93573 5.30815 4.16573 6.32015 4.16573Z" fill="#D9E0F4"/>
</svg>
