<svg width="78" height="85" viewBox="0 0 78 85" fill="none" xmlns="http://www.w3.org/2000/svg">
<path d="M20.4112 3.21411C20.4112 1.55726 21.7543 0.214111 23.4112 0.214111H55.0171C56.674 0.214111 58.0171 1.55726 58.0171 3.21411V81.1043C58.0171 82.7611 56.674 84.1043 55.0171 84.1043H23.4112C21.7543 84.1043 20.4112 82.7611 20.4112 81.1043V3.21411Z" fill="#D9E0F4"/>
<path d="M44.0533 20.9635H51.7316V28.6418H44.0533V20.9635Z" fill="url(#paint0_linear)" stroke="black"/>
<path d="M44.0533 6.49963H51.7316V14.1779H44.0533V6.49963Z" fill="url(#paint1_linear)" stroke="black"/>
<path d="M37.7678 69.6405V84.1043H26.1968V69.6405C26.1968 68.1061 26.8063 66.6345 27.8913 65.5495C28.9763 64.4645 30.4479 63.855 31.9823 63.855C33.5167 63.855 34.9883 64.4645 36.0733 65.5495C37.1583 66.6345 37.7678 68.1061 37.7678 69.6405Z" fill="#2C3584"/>
<path d="M37.7678 69.6405V84.1043H31.9823V69.6405C31.9795 68.1064 31.3714 66.6354 30.29 65.5472C29.929 65.1951 29.5257 64.8891 29.0895 64.636C29.9682 64.1261 30.9658 63.857 31.9818 63.8556C32.9977 63.8542 33.996 64.1207 34.8761 64.6283C35.7562 65.1358 36.4869 65.8663 36.9946 66.7463C37.5023 67.6263 37.769 68.6246 37.7678 69.6405Z" fill="url(#paint2_linear)"/>
<path d="M26.6968 49.891H34.3751V57.5693H26.6968V49.891Z" fill="url(#paint3_linear)" stroke="black"/>
<path d="M26.6968 35.4272H34.3751V43.1055H26.6968V35.4272Z" fill="url(#paint4_linear)" stroke="black"/>
<path d="M26.6968 20.9635H34.3751V28.6418H26.6968V20.9635Z" fill="url(#paint5_linear)" stroke="black"/>
<path d="M26.6968 6.49963H34.3751V14.1779H26.6968V6.49963Z" fill="url(#paint6_linear)" stroke="black"/>
<path d="M52.2316 3.10688C52.2316 1.50925 53.5268 0.214111 55.1244 0.214111C56.722 0.214111 58.0172 1.50925 58.0172 3.10687V32.0345C58.0172 33.6321 56.722 34.9273 55.1244 34.9273C53.5268 34.9273 52.2316 33.6321 52.2316 32.0345V3.10688Z" fill="#9EA1BA"/>
<path d="M20.9112 3.21411C20.9112 1.8334 22.0305 0.714111 23.4112 0.714111H55.0171C56.3978 0.714111 57.5171 1.8334 57.5171 3.21411V81.1043C57.5171 82.485 56.3978 83.6043 55.0171 83.6043H23.4112C22.0305 83.6043 20.9112 82.485 20.9112 81.1043V3.21411Z" stroke="black"/>
<path d="M43.5533 37.9272C43.5533 36.2704 44.8965 34.9272 46.5533 34.9272H69.481C71.1378 34.9272 72.481 36.2704 72.481 37.9272V81.1042C72.481 82.7611 71.1378 84.1042 69.481 84.1042H46.5533C44.8965 84.1042 43.5533 82.7611 43.5533 81.1042V37.9272Z" fill="#D9E0F4"/>
<path d="M61.4099 70.1404H66.1955V74.9259H61.4099V70.1404Z" fill="url(#paint7_linear)" stroke="black"/>
<path d="M61.4099 57.1232H66.1955V61.9087H61.4099V57.1232Z" fill="url(#paint8_linear)" stroke="black"/>
<path d="M61.4099 44.1056H66.1955V48.8911H61.4099V44.1056Z" fill="url(#paint9_linear)" stroke="black"/>
<path d="M49.8389 70.1404H54.6244V74.9259H49.8389V70.1404Z" fill="url(#paint10_linear)" stroke="black"/>
<path d="M49.8389 57.1232H54.6244V61.9087H49.8389V57.1232Z" fill="url(#paint11_linear)" stroke="black"/>
<path d="M49.8389 44.1056H54.6244V48.8911H49.8389V44.1056Z" fill="url(#paint12_linear)" stroke="black"/>
<path opacity="0.4" d="M66.6955 37.82C66.6955 36.2224 67.9906 34.9272 69.5882 34.9272C71.1859 34.9272 72.481 36.2224 72.481 37.82V81.2115C72.481 82.8091 71.1859 84.1042 69.5882 84.1042C67.9906 84.1042 66.6955 82.8091 66.6955 81.2115V37.82Z" fill="#9EA1BA"/>
<path d="M44.0533 37.9272C44.0533 36.5465 45.1726 35.4272 46.5533 35.4272H69.481C70.8617 35.4272 71.981 36.5465 71.981 37.9272V81.1042C71.981 82.485 70.8617 83.6042 69.481 83.6042H46.5533C45.1726 83.6042 44.0533 82.485 44.0533 81.1042V37.9272Z" stroke="black"/>
<path d="M1 83.6786H77.4284" stroke="black" stroke-linecap="round"/>
<path d="M9.53674 76.8422V83.882" stroke="black"/>
<ellipse cx="9.53679" cy="66.5458" rx="3.61485" ry="4.51854" fill="#D9E0F4"/>
<circle cx="9.53676" cy="72.0897" r="5.16408" fill="#D9E0F4"/>
<defs>
<linearGradient id="paint0_linear" x1="43.5528" y1="24.8034" x2="52.2302" y2="24.8034" gradientUnits="userSpaceOnUse">
<stop stop-color="#184E9C"/>
<stop offset="0.8501" stop-color="#1F6BD8"/>
</linearGradient>
<linearGradient id="paint1_linear" x1="43.5528" y1="10.3396" x2="52.2302" y2="10.3396" gradientUnits="userSpaceOnUse">
<stop stop-color="#184E9C"/>
<stop offset="0.8501" stop-color="#1F6BD8"/>
</linearGradient>
<linearGradient id="paint2_linear" x1="29.0889" y1="73.9818" x2="37.7664" y2="73.9818" gradientUnits="userSpaceOnUse">
<stop stop-color="#184E9C"/>
<stop offset="0.8501" stop-color="#1F6BD8"/>
</linearGradient>
<linearGradient id="paint3_linear" x1="26.1962" y1="53.7309" x2="34.8737" y2="53.7309" gradientUnits="userSpaceOnUse">
<stop stop-color="#184E9C"/>
<stop offset="0.8501" stop-color="#1F6BD8"/>
</linearGradient>
<linearGradient id="paint4_linear" x1="26.1962" y1="39.2672" x2="34.8737" y2="39.2672" gradientUnits="userSpaceOnUse">
<stop stop-color="#184E9C"/>
<stop offset="0.8501" stop-color="#1F6BD8"/>
</linearGradient>
<linearGradient id="paint5_linear" x1="26.1962" y1="24.8034" x2="34.8737" y2="24.8034" gradientUnits="userSpaceOnUse">
<stop stop-color="#184E9C"/>
<stop offset="0.8501" stop-color="#1F6BD8"/>
</linearGradient>
<linearGradient id="paint6_linear" x1="26.1962" y1="10.3396" x2="34.8737" y2="10.3396" gradientUnits="userSpaceOnUse">
<stop stop-color="#184E9C"/>
<stop offset="0.8501" stop-color="#1F6BD8"/>
</linearGradient>
<linearGradient id="paint7_linear" x1="60.9096" y1="72.5337" x2="66.6945" y2="72.5337" gradientUnits="userSpaceOnUse">
<stop stop-color="#184E9C"/>
<stop offset="0.8501" stop-color="#1F6BD8"/>
</linearGradient>
<linearGradient id="paint8_linear" x1="60.9096" y1="59.5165" x2="66.6945" y2="59.5165" gradientUnits="userSpaceOnUse">
<stop stop-color="#184E9C"/>
<stop offset="0.8501" stop-color="#1F6BD8"/>
</linearGradient>
<linearGradient id="paint9_linear" x1="60.9096" y1="46.4989" x2="66.6945" y2="46.4989" gradientUnits="userSpaceOnUse">
<stop stop-color="#184E9C"/>
<stop offset="0.8501" stop-color="#1F6BD8"/>
</linearGradient>
<linearGradient id="paint10_linear" x1="49.3385" y1="72.5337" x2="55.1235" y2="72.5337" gradientUnits="userSpaceOnUse">
<stop stop-color="#184E9C"/>
<stop offset="0.8501" stop-color="#1F6BD8"/>
</linearGradient>
<linearGradient id="paint11_linear" x1="49.3385" y1="59.5165" x2="55.1235" y2="59.5165" gradientUnits="userSpaceOnUse">
<stop stop-color="#184E9C"/>
<stop offset="0.8501" stop-color="#1F6BD8"/>
</linearGradient>
<linearGradient id="paint12_linear" x1="49.3385" y1="46.4989" x2="55.1235" y2="46.4989" gradientUnits="userSpaceOnUse">
<stop stop-color="#184E9C"/>
<stop offset="0.8501" stop-color="#1F6BD8"/>
</linearGradient>
</defs>
</svg>
