<svg id="Capa_1" enable-background="new 0 0 497 497" height="55" viewBox="0 0 497 497" width="55" xmlns="http://www.w3.org/2000/svg"><g><path d="m160.5 85h301c2.761 0 5 2.239 5 5v402c0 2.761-2.239 5-5 5h-301c-2.761 0-5-2.239-5-5v-402c0-2.761 2.239-5 5-5z" fill="#f5f5f5"/><path d="m444 85v384.5c0 2.76-2.24 5-5 5h-283.5v-384.5c0-2.76 2.24-5 5-5z" fill="#e6e6e6"/><path d="m419 42.5h-301c-2.761 0-5 2.239-5 5v402c0 2.761 2.239 5 5 5h301c2.761 0 5-2.239 5-5v-402c0-2.761-2.239-5-5-5z" fill="#f5f5f5"/><path d="m401.5 42.5v384.5c0 2.76-2.24 5-5 5h-283.5v-384.5c0-2.76 2.24-5 5-5z" fill="#e6e6e6"/><path d="m381.5 5v402c0 2.76-2.24 5-5 5h-296c-27.61 0-50-22.39-50-50v-13c0-2.76 2.24-5 5-5h30c.06 0 .11 0 .17-.01 2.68-.08 4.83-2.29 4.83-4.99v-334c0-2.76 2.24-5 5-5h301c2.76 0 5 2.24 5 5z" fill="#f5f5f5"/><path d="m196.5 145h-86c-2.761 0-5-2.239-5-5v-86c0-2.761 2.239-5 5-5h86c2.761 0 5 2.239 5 5v86c0 2.761-2.239 5-5 5z" fill="#faa515"/><g fill="#2b597f"><path d="m346.5 139.5h-110c-4.142 0-7.5-3.358-7.5-7.5s3.358-7.5 7.5-7.5h110c4.142 0 7.5 3.358 7.5 7.5s-3.358 7.5-7.5 7.5z"/><path d="m281.5 207.5h-111c-4.142 0-7.5-3.358-7.5-7.5s3.358-7.5 7.5-7.5h111c4.142 0 7.5 3.358 7.5 7.5s-3.358 7.5-7.5 7.5z"/><path d="m346.5 104.5h-110c-4.142 0-7.5-3.358-7.5-7.5s3.358-7.5 7.5-7.5h110c4.142 0 7.5 3.358 7.5 7.5s-3.358 7.5-7.5 7.5z"/><path d="m346.5 69.5h-110c-4.142 0-7.5-3.358-7.5-7.5s3.358-7.5 7.5-7.5h110c4.142 0 7.5 3.358 7.5 7.5s-3.358 7.5-7.5 7.5z"/><path d="m346.5 296.5h-241c-4.142 0-7.5-3.358-7.5-7.5s3.358-7.5 7.5-7.5h241c4.142 0 7.5 3.358 7.5 7.5s-3.358 7.5-7.5 7.5z"/><path d="m346.5 251.5h-131c-4.142 0-7.5-3.358-7.5-7.5s3.358-7.5 7.5-7.5h131c4.142 0 7.5 3.358 7.5 7.5s-3.358 7.5-7.5 7.5z"/><path d="m180.5 251.5h-75.5c-4.142 0-7.5-3.358-7.5-7.5s3.358-7.5 7.5-7.5h75.5c4.142 0 7.5 3.358 7.5 7.5s-3.358 7.5-7.5 7.5z"/><path d="m332.28 412h-251.78c-27.614 0-50-22.386-50-50v-13c0-2.761 2.239-5 5-5h30c.06 0 .11 0 .17-.01h212.11c2.761 0 5 2.239 5 5v13.01c0 27.44 22.12 49.74 49.5 50z"/></g></g></svg>