<svg width="468" height="457" viewBox="0 0 468 457" fill="none" xmlns="http://www.w3.org/2000/svg">
<g clip-path="url(#clip0)">
<path d="M425.635 254.331C424.311 254.331 422.987 254 421.829 253.338L399.323 239.926L400.646 237.608L423.153 251.019C424.642 251.847 426.463 251.847 427.952 251.019L464.525 229.66C465.187 229.329 465.518 228.667 465.518 228.004C465.518 227.342 465.187 226.68 464.525 226.348L415.706 200.187L417.03 197.869L465.849 224.03C467.338 224.858 468.165 226.183 468.165 227.839C468.165 229.494 467.338 230.985 466.014 231.812L429.441 253.172C428.117 254 426.794 254.331 425.635 254.331Z" fill="#8FB8E9"/>
<path d="M334.617 456.832C332.962 456.832 331.472 456.501 329.983 455.673L240.289 405.669C238.965 405.006 238.137 403.516 238.137 402.026C238.137 400.536 238.965 399.211 240.289 398.383L280.833 375.534C281.495 375.202 281.495 374.54 281.495 374.374C281.495 374.209 281.495 373.547 280.833 373.215L235.655 347.22C234.331 346.557 233.669 345.233 233.669 343.743C233.669 342.252 234.331 340.928 235.489 340.266L253.859 328.51L255.348 330.662L236.979 342.418C236.317 342.749 236.317 343.411 236.317 343.577C236.317 343.743 236.482 344.405 236.979 344.736L282.157 370.732C283.481 371.394 284.143 372.719 284.143 374.209C284.143 375.699 283.315 377.024 282.157 377.686L241.612 400.867C240.95 401.198 240.785 401.86 240.785 402.191C240.785 402.523 240.785 403.019 241.612 403.516L331.307 453.52C333.458 454.679 336.106 454.679 338.092 453.355L372.182 432.327C372.513 432.161 372.513 431.83 372.513 431.83C372.513 431.664 372.513 431.499 372.182 431.333L347.525 416.266L348.849 413.947L373.506 429.015C374.499 429.677 375.161 430.671 375.161 431.83C375.161 432.989 374.499 433.982 373.672 434.645L339.581 455.673C338.092 456.335 336.437 456.832 334.617 456.832Z" fill="#8FB8E9"/>
<path d="M373.506 255.655L330.314 230.653C327.666 229.163 327.997 226.514 330.976 224.693L372.679 200.518C375.823 198.697 380.457 198.531 383.105 200.022L426.297 225.024C428.945 226.514 428.614 229.163 425.635 230.984L383.932 255.159C380.788 256.98 376.154 257.311 373.506 255.655Z" fill="#8FB8E9"/>
<path d="M440.694 206.148V187.438H398.826L384.429 178.993C381.119 177.006 375.327 177.337 371.521 179.49L357.951 187.272H316.082V206.479C315.917 207.804 316.744 208.963 318.233 209.956L372.348 241.25C375.658 243.237 381.45 242.906 385.256 240.754L437.55 210.618C439.702 209.294 440.694 207.638 440.694 206.148Z" fill="#396CAA"/>
<path d="M378.306 177.834C375.823 177.834 373.341 178.497 371.355 179.656L357.785 187.438H315.917V206.645C315.751 207.969 316.579 209.128 318.068 210.122L372.182 241.416C373.837 242.409 375.989 242.741 378.14 242.741V177.834H378.306Z" fill="#396CAA"/>
<path d="M320.55 187.438H315.751V206.645C315.586 207.969 316.413 209.128 317.902 210.122L320.385 211.612V187.438H320.55Z" fill="#5A84C4"/>
<path d="M373.01 241.747C375.823 242.906 379.96 242.906 383.436 241.582V219.725H373.01V241.747Z" fill="#5A84C4"/>
<path d="M372.181 222.209L318.067 190.915C314.757 188.928 315.088 185.616 319.06 183.464L371.354 153.329C375.16 151.176 380.952 150.845 384.262 152.832L438.376 184.126C441.686 186.113 441.355 189.425 437.384 191.577L385.089 221.712C381.283 223.865 375.491 224.196 372.181 222.209Z" fill="#E5F2FE"/>
<path d="M373.175 216.579L327.832 190.418C325.018 188.762 325.349 185.948 328.659 184.126L372.348 158.793C375.492 156.972 380.457 156.806 383.27 158.296L428.614 184.623C431.427 186.279 431.096 189.094 427.786 190.915L384.098 216.083C380.788 218.07 375.989 218.235 373.175 216.579Z" fill="#5A84C4"/>
<path d="M420.67 211.115C420.67 212.44 419.678 214.261 418.519 214.924C417.361 215.586 416.368 215.089 416.368 213.599C416.368 212.274 417.361 210.453 418.519 209.791C419.678 209.128 420.67 209.625 420.67 211.115Z" fill="#E5F2FE"/>
<path d="M427.786 206.976C427.786 208.301 426.794 210.122 425.635 210.784C424.477 211.447 423.484 210.95 423.484 209.46C423.484 208.135 424.477 206.314 425.635 205.651C426.794 205.155 427.786 205.651 427.786 206.976Z" fill="#E5F2FE"/>
<path d="M434.737 203.002C434.737 204.327 433.744 206.148 432.586 206.81C431.427 207.473 430.434 206.976 430.434 205.486C430.434 204.161 431.427 202.34 432.586 201.677C433.744 201.015 434.737 201.512 434.737 203.002Z" fill="#E5F2FE"/>
<path d="M440.694 176.344V157.634H398.826L384.429 149.189C381.119 147.202 375.327 147.533 371.521 149.686L357.951 157.468H316.082V176.675C315.917 178 316.744 179.159 318.233 180.152L372.348 211.446C375.658 213.433 381.45 213.102 385.256 210.95L437.55 180.815C439.702 179.49 440.694 177.834 440.694 176.344Z" fill="#396CAA"/>
<path d="M378.306 147.865C375.823 147.865 373.341 148.527 371.355 149.686L357.785 157.468H315.917V176.675C315.751 178 316.579 179.159 318.068 180.152L372.182 211.446C373.837 212.44 375.989 212.771 378.14 212.771V147.865H378.306Z" fill="#396CAA"/>
<path d="M320.55 157.468H315.751V176.675C315.586 178 316.413 179.159 317.902 180.152L320.385 181.643V157.468H320.55Z" fill="#5A84C4"/>
<path d="M373.01 211.943C375.823 213.102 379.96 213.102 383.436 211.778V189.921H373.01V211.943Z" fill="#5A84C4"/>
<path d="M372.181 192.405L318.067 161.111C314.757 159.124 315.088 155.812 319.06 153.66L371.354 123.359C375.16 121.207 380.952 120.876 384.262 122.863L438.376 154.157C441.686 156.144 441.355 159.455 437.384 161.608L385.089 191.743C381.283 194.061 375.491 194.226 372.181 192.405Z" fill="#E5F2FE"/>
<path d="M373.175 186.775L327.832 160.614C325.018 158.958 325.349 156.144 328.659 154.322L372.348 128.989C375.492 127.168 380.457 127.002 383.27 128.492L428.614 154.653C431.427 156.309 431.096 159.124 427.786 160.945L384.098 186.279C380.788 188.1 375.989 188.266 373.175 186.775Z" fill="#5A84C4"/>
<path d="M420.67 181.146C420.67 182.471 419.678 184.292 418.519 184.954C417.361 185.616 416.368 185.12 416.368 183.63C416.368 182.305 417.361 180.484 418.519 179.821C419.678 179.325 420.67 179.821 420.67 181.146Z" fill="#E5F2FE"/>
<path d="M427.786 177.172C427.786 178.497 426.794 180.318 425.635 180.98C424.477 181.643 423.484 181.146 423.484 179.656C423.484 178.331 424.477 176.51 425.635 175.847C426.794 175.185 427.786 175.847 427.786 177.172Z" fill="#E5F2FE"/>
<path d="M434.737 173.033C434.737 174.357 433.744 176.179 432.586 176.841C431.427 177.503 430.434 177.006 430.434 175.516C430.434 174.192 431.427 172.37 432.586 171.708C433.744 171.211 434.737 171.708 434.737 173.033Z" fill="#E5F2FE"/>
<path d="M440.694 146.374V127.664H398.826L384.429 119.22C381.119 117.233 375.327 117.564 371.521 119.717L357.951 127.499H316.082V146.706C315.917 148.03 316.744 149.189 318.233 150.183L372.348 181.477C375.658 183.464 381.45 183.133 385.256 180.98L437.55 150.845C439.702 149.686 440.694 148.03 440.694 146.374Z" fill="#396CAA"/>
<path d="M378.306 118.061C375.823 118.061 373.341 118.723 371.355 119.882L357.785 127.664H315.917V146.871C315.751 148.196 316.579 149.355 318.068 150.348L372.182 181.642C373.837 182.636 375.989 182.967 378.14 182.967V118.061H378.306Z" fill="#396CAA"/>
<path d="M320.55 127.664H315.751V146.871C315.586 148.196 316.413 149.355 317.902 150.348L320.385 151.839V127.664H320.55Z" fill="#5A84C4"/>
<path d="M373.01 181.974C375.823 183.133 379.96 183.133 383.436 181.808V160.117H373.01V181.974Z" fill="#5A84C4"/>
<path d="M372.181 162.436L318.067 131.141C314.757 129.155 315.088 125.843 319.06 123.69L371.354 93.5554C375.16 91.4029 380.952 91.0717 384.262 93.0586L438.376 124.353C441.686 126.34 441.355 129.651 437.384 131.804L385.089 161.939C381.283 164.091 375.491 164.422 372.181 162.436Z" fill="#E5F2FE"/>
<path d="M437.385 127.995L385.091 158.13C381.284 160.283 375.492 160.614 372.182 158.627L318.068 127.333C317.406 126.836 316.744 126.34 316.413 125.843C315.255 127.664 315.751 129.651 318.068 130.976L372.182 162.27C375.492 164.257 381.284 163.926 385.091 161.773L437.385 131.638C440.364 129.982 441.191 127.499 440.033 125.677C439.536 126.505 438.709 127.333 437.385 127.995Z" fill="white"/>
<path d="M420.67 151.342C420.67 152.666 419.678 154.488 418.519 155.15C417.361 155.812 416.368 155.316 416.368 153.825C416.368 152.501 417.361 150.679 418.519 150.017C419.678 149.355 420.67 150.017 420.67 151.342Z" fill="#E5F2FE"/>
<path d="M427.786 147.368C427.786 148.692 426.794 150.514 425.635 151.176C424.477 151.838 423.484 151.342 423.484 149.851C423.484 148.527 424.477 146.706 425.635 146.043C426.794 145.381 427.786 145.878 427.786 147.368Z" fill="#E5F2FE"/>
<path d="M434.737 143.228C434.737 144.553 433.744 146.374 432.586 147.037C431.427 147.699 430.434 147.202 430.434 145.712C430.434 144.388 431.427 142.566 432.586 141.904C433.744 141.242 434.737 141.904 434.737 143.228Z" fill="#E5F2FE"/>
<path d="M375.492 143.063L350.172 128.492C348.682 127.664 348.848 126.008 350.668 125.015L375.161 110.941C376.981 109.947 379.629 109.782 381.284 110.61L406.603 125.18C408.093 126.008 407.927 127.664 406.107 128.658L381.615 142.732C379.629 143.891 376.981 144.056 375.492 143.063Z" fill="#00BFFF"/>
<path d="M377.809 130.81L374.334 128.823C374.168 128.658 374.168 128.492 374.334 128.327L377.644 126.34C377.975 126.174 378.306 126.174 378.471 126.34L381.946 128.327C382.112 128.492 382.112 128.658 381.946 128.823L378.637 130.81C378.471 130.976 377.975 130.976 377.809 130.81Z" fill="#E5F2FE"/>
<path d="M350.007 128.492C350.173 128.492 350.338 128.327 350.504 128.327L374.996 114.253C376.816 113.259 379.464 113.094 381.119 113.921L406.439 128.492C407.928 127.499 407.928 126.009 406.439 125.181L381.119 110.61C379.629 109.782 376.816 109.782 374.996 110.941L350.504 125.015C348.683 126.009 348.518 127.499 350.007 128.492Z" fill="#396CAA"/>
<path d="M276.034 345.398L182.533 292.083C179.058 290.096 179.554 286.618 183.526 284.3L237.31 253.172C241.281 250.854 247.239 250.688 250.714 252.675L344.215 305.991C347.69 307.978 347.194 311.455 343.222 313.773L289.438 344.902C285.467 347.054 279.509 347.385 276.034 345.398Z" fill="#8FB8E9"/>
<path d="M352.489 288.109V69.7121L265.774 47.028L249.721 37.7557C246.081 35.6032 239.627 35.9343 235.489 38.418L220.595 47.028H174.259L187.994 257.808C187.829 259.298 188.656 260.623 190.477 261.616L277.027 327.019C280.668 329.172 287.122 328.841 291.259 326.357L349.014 293.076C351.331 291.586 352.489 289.764 352.489 288.109Z" fill="#396CAA"/>
<path d="M243.102 36.4312C240.454 36.4312 237.641 37.0935 235.489 38.4181L220.595 47.0281H174.259V265.921C174.093 267.412 174.921 268.736 176.741 269.73L277.027 326.854C278.847 327.847 281.164 328.344 283.646 328.344L284.639 108.126L243.102 36.4312Z" fill="#E5F2FE"/>
<path d="M277.854 327.35C280.999 328.675 285.632 328.675 289.273 327.185V105.477H277.854V327.35Z" fill="#5A84C4"/>
<path d="M277.026 108.126L176.74 51.0018C173.1 48.8493 173.596 45.2066 177.733 42.723L235.489 9.44194C239.791 6.95828 246.08 6.7927 249.721 8.77963L350.006 65.9038C353.647 68.0563 353.151 71.699 349.013 74.1827L291.258 107.464C286.955 109.947 280.667 110.279 277.026 108.126Z" fill="#E5F2FE"/>
<path d="M349.014 70.2089L291.259 103.49C286.956 105.974 280.668 106.139 277.027 104.152L176.741 47.0281C175.914 46.5314 175.252 46.0346 174.921 45.3723C173.597 47.3592 174.259 49.6773 176.741 51.0019L277.027 108.126C280.668 110.279 287.122 109.948 291.259 107.464L349.014 74.1828C352.324 72.3614 353.317 69.5466 351.827 67.5597C351.165 68.5532 350.338 69.381 349.014 70.2089Z" fill="#FAFDFF"/>
<path d="M279.839 84.9451L213.148 46.2C211.493 45.2066 211.658 43.5508 213.644 42.3917L240.619 26.8275C242.605 25.6684 245.583 25.5029 247.238 26.4963L313.93 65.2414C315.585 66.2349 315.419 67.8907 313.433 69.0497L286.459 84.614C284.473 85.773 281.494 85.9386 279.839 84.9451Z" fill="#2C3584"/>
<path d="M243.764 48.0214L239.958 45.8689C239.792 45.7033 239.792 45.5377 239.958 45.3721L243.764 43.2196C244.095 43.0541 244.426 43.0541 244.757 43.2196L248.563 45.3721C248.728 45.5377 248.728 45.7033 248.563 45.8689L244.757 48.0214C244.426 48.0214 243.929 48.187 243.764 48.0214Z" fill="#E5F2FE"/>
<path d="M256.672 55.4723L252.866 53.3198C252.7 53.1542 252.7 52.9887 252.866 52.8231L256.672 50.6706C257.003 50.505 257.334 50.505 257.665 50.6706L261.471 52.8231C261.636 52.9887 261.636 53.1542 261.471 53.3198L257.665 55.4723C257.334 55.4723 256.837 55.4723 256.672 55.4723Z" fill="#E5F2FE"/>
<path d="M269.58 62.9232L265.774 60.7707C265.608 60.6052 265.608 60.4396 265.774 60.274L269.58 58.1215C269.911 57.9559 270.242 57.9559 270.573 58.1215L274.379 60.274C274.545 60.4396 274.545 60.6052 274.379 60.7707L270.573 62.9232C270.242 62.9232 269.911 62.9232 269.58 62.9232Z" fill="#E5F2FE"/>
<path d="M282.488 70.2089L278.682 68.0564C278.516 67.8908 278.516 67.7252 278.682 67.5596L282.488 65.4071C282.819 65.2416 283.15 65.2416 283.481 65.4071L287.287 67.5596C287.453 67.7252 287.453 67.8908 287.287 68.0564L283.481 70.2089C283.15 70.3745 282.819 70.3745 282.488 70.2089Z" fill="#E5F2FE"/>
<path d="M212.983 46.2C213.148 46.2 213.314 46.0344 213.479 46.0344L240.454 30.4702C242.44 29.3111 245.419 29.1456 247.074 30.139L313.765 68.8841C315.42 67.7251 315.42 66.2349 313.765 65.2414L247.074 26.4963C245.419 25.5029 242.44 25.6684 240.454 26.8275L213.479 42.3917C211.494 43.5508 211.328 45.2066 212.983 46.2Z" fill="#5A84C4"/>
<path d="M302.512 151.342L340.409 129.651C342.56 128.492 344.215 125.181 344.215 122.2V108.623C344.215 105.808 342.56 104.483 340.409 105.642L302.512 127.333C300.361 128.492 298.706 131.804 298.706 134.784V148.361C298.706 151.342 300.361 152.666 302.512 151.342Z" fill="#2C3584"/>
<path d="M342.395 105.311C343.057 105.808 343.388 106.801 343.388 108.126V121.703C343.388 124.518 341.733 127.83 339.581 129.154L301.685 150.845C301.023 151.176 300.361 151.342 299.864 151.176C300.526 151.839 301.519 152.004 302.843 151.342L340.74 129.651C342.891 128.492 344.546 125.181 344.546 122.2V108.623C344.38 106.801 343.553 105.477 342.395 105.311Z" fill="white"/>
<path d="M313.931 136.605L317.406 134.618C317.902 134.287 318.233 133.625 318.233 132.963V129.32C318.233 128.658 317.902 128.492 317.406 128.658L313.931 130.645C313.434 130.976 313.103 131.638 313.103 132.3V135.943C313.103 136.605 313.434 136.936 313.931 136.605Z" fill="#396CAA"/>
<path d="M325.515 129.982L328.99 127.995C329.487 127.664 329.818 127.002 329.818 126.34V122.697C329.818 122.035 329.487 121.869 328.99 122.035L325.515 124.022C325.018 124.353 324.687 125.015 324.687 125.677V129.32C324.687 129.817 325.184 130.148 325.515 129.982Z" fill="white"/>
<path d="M302.512 249.529L340.409 227.838C342.56 226.679 344.215 223.368 344.215 220.387V206.81C344.215 203.995 342.56 202.671 340.409 203.83L302.512 225.52C300.361 226.679 298.706 229.991 298.706 232.971V246.549C298.706 249.363 300.361 250.688 302.512 249.529Z" fill="#2C3584"/>
<path d="M342.395 203.499C343.057 203.995 343.388 204.989 343.388 206.313V219.891C343.388 222.705 341.733 226.017 339.581 227.342L301.685 249.032C301.023 249.363 300.361 249.529 299.864 249.363C300.526 250.026 301.519 250.191 302.843 249.529L340.74 227.838C342.891 226.679 344.546 223.368 344.546 220.387V206.81C344.38 204.823 343.553 203.664 342.395 203.499Z" fill="white"/>
<path d="M313.931 234.793L317.406 232.806C317.902 232.475 318.233 231.812 318.233 231.15V227.507C318.233 226.845 317.902 226.679 317.406 226.845L313.931 228.832C313.434 229.163 313.103 229.825 313.103 230.488V234.13C313.103 234.793 313.434 234.958 313.931 234.793Z" fill="#396CAA"/>
<path d="M325.515 228.004L328.99 226.017C329.487 225.686 329.818 225.024 329.818 224.361V220.719C329.818 220.056 329.487 219.891 328.99 220.056L325.515 222.043C325.018 222.374 324.687 223.037 324.687 223.699V227.342C324.687 228.004 325.184 228.335 325.515 228.004Z" fill="#396CAA"/>
<path d="M302.512 298.54L340.409 276.849C342.56 275.69 344.215 272.379 344.215 269.398V255.821C344.215 253.006 342.56 251.682 340.409 252.841L302.512 274.531C300.361 275.69 298.706 279.002 298.706 281.982V295.56C298.706 298.54 300.361 299.865 302.512 298.54Z" fill="#2C3584"/>
<path d="M342.395 252.51C343.057 253.006 343.388 254 343.388 255.324V268.902C343.388 271.716 341.733 275.028 339.581 276.353L301.685 298.043C301.023 298.374 300.361 298.54 299.864 298.374C300.526 299.037 301.519 299.202 302.843 298.54L340.74 276.849C342.891 275.69 344.546 272.379 344.546 269.398V255.821C344.38 254 343.553 252.675 342.395 252.51Z" fill="white"/>
<path d="M313.931 283.804L317.406 281.817C317.902 281.485 318.233 280.823 318.233 280.161V276.518C318.233 275.856 317.902 275.69 317.406 275.856L313.931 277.843C313.434 278.174 313.103 278.836 313.103 279.499V283.141C313.103 283.804 313.434 284.135 313.931 283.804Z" fill="white"/>
<path d="M325.515 277.015L328.99 275.028C329.487 274.697 329.818 274.035 329.818 273.372V269.73C329.818 269.067 329.487 268.902 328.99 269.067L325.515 271.054C325.018 271.385 324.687 272.048 324.687 272.71V276.353C324.687 277.015 325.184 277.346 325.515 277.015Z" fill="#396CAA"/>
<path d="M302.512 200.517L340.409 178.826C342.56 177.667 344.215 174.356 344.215 171.375V157.798C344.215 154.983 342.56 153.658 340.409 154.817L302.512 176.508C300.361 177.667 298.706 180.979 298.706 183.959V197.536C298.706 200.351 300.361 201.676 302.512 200.517Z" fill="#2C3584"/>
<path d="M342.395 154.322C343.057 154.819 343.388 155.812 343.388 157.137V170.714C343.388 173.529 341.733 176.841 339.581 178.165L301.685 199.856C301.023 200.187 300.361 200.353 299.864 200.187C300.526 200.849 301.519 201.015 302.843 200.352L340.74 178.662C342.891 177.503 344.546 174.191 344.546 171.211V157.634C344.38 155.812 343.553 154.653 342.395 154.322Z" fill="white"/>
<path d="M313.931 185.616L317.406 183.629C317.902 183.298 318.233 182.636 318.233 181.973V178.331C318.233 177.668 317.902 177.503 317.406 177.668L313.931 179.655C313.434 179.986 313.103 180.649 313.103 181.311V184.954C313.103 185.616 313.434 185.947 313.931 185.616Z" fill="white"/>
<path d="M325.515 178.993L328.99 177.006C329.487 176.675 329.818 176.013 329.818 175.35V171.708C329.818 171.045 329.487 170.88 328.99 171.045L325.515 173.032C325.018 173.363 324.687 174.026 324.687 174.688V178.331C324.687 178.993 325.184 179.159 325.515 178.993Z" fill="white"/>
<path d="M269.58 137.433L182.037 86.932C180.051 85.773 178.562 82.7926 178.562 80.1433V63.42C178.562 60.7708 180.216 59.6118 182.037 60.7708L269.58 111.272C271.566 112.431 273.055 115.411 273.055 118.061V134.784C273.221 137.433 271.566 138.592 269.58 137.433Z" fill="#5A84C4"/>
<path opacity="0.4" d="M267.098 131.638L184.519 83.9516C183.526 83.4549 182.699 81.7991 182.699 80.4745V67.8906C182.699 66.566 183.526 65.9037 184.519 66.566L267.098 114.252C268.091 114.749 268.918 116.405 268.918 117.729V130.313C268.918 131.638 268.091 132.135 267.098 131.638Z" fill="#E5F2FE"/>
<path d="M201.73 87.5944L189.484 80.4745C188.491 79.9778 187.663 78.4876 187.663 77.163C187.663 75.8384 188.491 75.3416 189.484 75.8384L201.73 82.9582C202.723 83.4549 203.55 84.9451 203.55 86.2697C203.55 87.4288 202.723 88.0911 201.73 87.5944Z" fill="#E5F2FE"/>
<path d="M212.321 91.237C212.321 92.5616 211.494 93.0583 210.335 92.396C209.177 91.7337 208.349 90.2435 208.349 88.9189C208.349 87.5943 209.177 87.0975 210.335 87.7599C211.328 88.4222 212.321 89.9124 212.321 91.237Z" fill="#2C3584"/>
<path d="M219.437 95.3764C219.437 96.701 218.61 97.1977 217.451 96.5354C216.293 95.8731 215.465 94.3829 215.465 93.0583C215.465 91.7337 216.293 91.237 217.451 91.8993C218.444 92.5616 219.437 94.0518 219.437 95.3764Z" fill="#2C3584"/>
<path d="M226.553 99.516C226.553 100.841 225.726 101.337 224.567 100.675C223.409 100.013 222.581 98.5226 222.581 97.198C222.581 95.8733 223.409 95.3766 224.567 96.0389C225.56 96.7012 226.553 98.1914 226.553 99.516Z" fill="#E5F2FE"/>
<path d="M233.669 103.655C233.669 104.98 232.842 105.477 231.683 104.814C230.525 104.152 229.697 102.662 229.697 101.337C229.697 100.013 230.525 99.516 231.683 100.178C232.842 100.841 233.669 102.331 233.669 103.655Z" fill="#2C3584"/>
<path d="M263.622 124.684L259.485 122.365C258.823 122.034 258.327 121.041 258.327 120.213V115.742C258.327 114.914 258.823 114.583 259.485 114.914L263.622 117.233C264.284 117.564 264.781 118.557 264.781 119.385V123.856C264.781 124.684 264.284 125.015 263.622 124.684Z" fill="#2C3584"/>
<path d="M269.58 166.906L182.037 116.405C180.051 115.246 178.562 112.265 178.562 109.616V92.8929C178.562 90.2437 180.216 89.0847 182.037 90.2437L269.58 140.745C271.566 141.904 273.055 144.884 273.055 147.533V164.257C273.221 166.906 271.566 168.065 269.58 166.906Z" fill="#5A84C4"/>
<path opacity="0.4" d="M267.098 161.111L184.685 113.424C183.692 112.928 182.864 111.272 182.864 109.947V97.3635C182.864 96.0389 183.692 95.3766 184.685 96.0389L267.263 143.725C268.256 144.222 269.083 145.878 269.083 147.202V159.786C268.918 161.111 268.091 161.608 267.098 161.111Z" fill="#E5F2FE"/>
<path d="M201.73 117.067L189.484 109.947C188.491 109.451 187.663 107.961 187.663 106.636C187.663 105.311 188.491 104.815 189.484 105.311L201.73 112.431C202.723 112.928 203.55 114.418 203.55 115.743C203.55 116.902 202.723 117.564 201.73 117.067Z" fill="#E5F2FE"/>
<path d="M212.321 120.71C212.321 122.035 211.494 122.531 210.335 121.869C209.177 121.207 208.349 119.716 208.349 118.392C208.349 117.067 209.177 116.57 210.335 117.233C211.328 117.895 212.321 119.385 212.321 120.71Z" fill="white"/>
<path d="M219.437 124.849C219.437 126.174 218.61 126.671 217.451 126.008C216.293 125.346 215.465 123.856 215.465 122.531C215.465 121.207 216.293 120.71 217.451 121.372C218.444 122.034 219.437 123.525 219.437 124.849Z" fill="#2C3584"/>
<path d="M226.553 128.989C226.553 130.314 225.726 130.81 224.567 130.148C223.409 129.486 222.581 127.995 222.581 126.671C222.581 125.346 223.409 124.85 224.567 125.512C225.56 126.174 226.553 127.664 226.553 128.989Z" fill="#E5F2FE"/>
<path d="M233.669 133.128C233.669 134.453 232.842 134.95 231.683 134.287C230.525 133.625 229.697 132.135 229.697 130.81C229.697 129.486 230.525 128.989 231.683 129.651C232.842 130.148 233.669 131.804 233.669 133.128Z" fill="#2C3584"/>
<path d="M263.622 154.157L259.485 151.839C258.823 151.507 258.327 150.514 258.327 149.686V145.216C258.327 144.388 258.823 144.056 259.485 144.388L263.622 146.706C264.284 147.037 264.781 148.03 264.781 148.858V153.163C264.781 153.991 264.284 154.488 263.622 154.157Z" fill="#2C3584"/>
<path d="M269.58 196.379L182.037 145.878C180.051 144.719 178.562 141.738 178.562 139.089V122.366C178.562 119.716 180.216 118.557 182.037 119.716L269.58 170.217C271.566 171.376 273.055 174.357 273.055 177.006V193.729C273.221 196.379 271.566 197.538 269.58 196.379Z" fill="#5A84C4"/>
<path opacity="0.4" d="M267.098 190.583L184.519 142.897C183.526 142.4 182.699 140.745 182.699 139.42V126.836C182.699 125.512 183.526 124.849 184.519 125.512L267.098 173.198C268.091 173.695 268.918 175.35 268.918 176.675V189.259C268.918 190.583 268.091 191.08 267.098 190.583Z" fill="#E5F2FE"/>
<path d="M201.73 146.374L189.484 139.255C188.491 138.758 187.663 137.268 187.663 135.943C187.663 134.618 188.491 134.122 189.484 134.618L201.73 141.738C202.723 142.235 203.55 143.725 203.55 145.05C203.55 146.374 202.723 147.037 201.73 146.374Z" fill="#E5F2FE"/>
<path d="M212.321 150.183C212.321 151.507 211.494 152.004 210.335 151.342C209.177 150.679 208.349 149.189 208.349 147.864C208.349 146.54 209.177 146.043 210.335 146.705C211.328 147.368 212.321 148.858 212.321 150.183Z" fill="white"/>
<path d="M219.437 154.322C219.437 155.647 218.61 156.143 217.451 155.481C216.293 154.819 215.465 153.328 215.465 152.004C215.465 150.679 216.293 150.183 217.451 150.845C218.444 151.507 219.437 152.997 219.437 154.322Z" fill="#2C3584"/>
<path d="M226.553 158.461C226.553 159.786 225.726 160.283 224.567 159.62C223.409 158.958 222.581 157.468 222.581 156.143C222.581 154.819 223.409 154.322 224.567 154.984C225.56 155.481 226.553 157.137 226.553 158.461Z" fill="#E5F2FE"/>
<path d="M233.669 162.601C233.669 163.925 232.842 164.422 231.683 163.76C230.525 163.097 229.697 161.607 229.697 160.283C229.697 158.958 230.525 158.461 231.683 159.124C232.842 159.62 233.669 161.276 233.669 162.601Z" fill="#2C3584"/>
<path d="M263.622 183.629L259.485 181.311C258.823 180.98 258.327 179.986 258.327 179.159V174.688C258.327 173.86 258.823 173.529 259.485 173.86L263.622 176.178C264.284 176.509 264.781 177.503 264.781 178.331V182.801C264.781 183.464 264.284 183.96 263.622 183.629Z" fill="#2C3584"/>
<path d="M269.58 225.852L182.037 175.35C180.051 174.191 178.562 171.211 178.562 168.562V151.838C178.562 149.189 180.216 148.03 182.037 149.189L269.58 199.69C271.566 200.849 273.055 203.83 273.055 206.479V223.202C273.221 225.852 271.566 227.011 269.58 225.852Z" fill="#5A84C4"/>
<path opacity="0.4" d="M267.098 220.056L184.519 172.37C183.526 171.873 182.699 170.218 182.699 168.893V156.309C182.699 154.984 183.526 154.322 184.519 154.984L267.098 202.671C268.091 203.167 268.918 204.823 268.918 206.148V218.732C268.918 219.891 268.091 220.553 267.098 220.056Z" fill="#E5F2FE"/>
<path d="M201.73 175.847L189.484 168.727C188.491 168.231 187.663 166.741 187.663 165.416C187.663 164.091 188.491 163.595 189.484 164.091L201.73 171.211C202.723 171.708 203.55 173.198 203.55 174.523C203.55 175.847 202.723 176.51 201.73 175.847Z" fill="#E5F2FE"/>
<path d="M212.321 179.655C212.321 180.98 211.494 181.477 210.335 180.814C209.177 180.152 208.349 178.662 208.349 177.337C208.349 176.013 209.177 175.516 210.335 176.178C211.328 176.841 212.321 178.331 212.321 179.655Z" fill="#2C3584"/>
<path d="M219.437 183.795C219.437 185.119 218.61 185.616 217.451 184.954C216.293 184.292 215.465 182.801 215.465 181.477C215.465 180.152 216.293 179.655 217.451 180.318C218.444 180.98 219.437 182.47 219.437 183.795Z" fill="#2C3584"/>
<path d="M226.553 187.934C226.553 189.259 225.726 189.756 224.567 189.093C223.409 188.431 222.581 186.941 222.581 185.616C222.581 184.292 223.409 183.795 224.567 184.457C225.56 184.954 226.553 186.61 226.553 187.934Z" fill="#E5F2FE"/>
<path d="M233.669 191.908C233.669 193.233 232.842 193.729 231.683 193.067C230.525 192.405 229.697 190.915 229.697 189.59C229.697 188.265 230.525 187.769 231.683 188.431C232.842 189.093 233.669 190.749 233.669 191.908Z" fill="#2C3584"/>
<path d="M263.622 212.936L259.485 210.618C258.823 210.287 258.327 209.294 258.327 208.466V203.995C258.327 203.167 258.823 202.836 259.485 203.167L263.622 205.486C264.284 205.817 264.781 206.81 264.781 207.638V212.109C264.781 212.936 264.284 213.433 263.622 212.936Z" fill="#E5F2FE"/>
<path d="M269.58 255.324L182.037 204.658C180.051 203.499 178.562 200.518 178.562 197.869V181.311C178.562 178.662 180.216 177.503 182.037 178.662L269.58 229.163C271.566 230.322 273.055 233.302 273.055 235.952V252.675C273.221 255.159 271.566 256.483 269.58 255.324Z" fill="#5A84C4"/>
<path opacity="0.4" d="M267.098 249.529L184.519 201.843C183.526 201.346 182.699 199.69 182.699 198.366V185.782C182.699 184.457 183.526 183.795 184.519 184.457L267.098 232.143C268.091 232.64 268.918 234.296 268.918 235.621V248.204C268.918 249.363 268.091 250.026 267.098 249.529Z" fill="#E5F2FE"/>
<path d="M201.73 205.32L189.484 198.2C188.491 197.703 187.663 196.213 187.663 194.889C187.663 193.564 188.491 193.067 189.484 193.564L201.73 200.684C202.723 201.18 203.55 202.671 203.55 203.995C203.55 205.32 202.723 205.982 201.73 205.32Z" fill="#E5F2FE"/>
<path d="M212.321 209.128C212.321 210.453 211.494 210.949 210.335 210.287C209.177 209.625 208.349 208.135 208.349 206.81C208.349 205.485 209.177 204.989 210.335 205.651C211.328 206.313 212.321 207.803 212.321 209.128Z" fill="#2C3584"/>
<path d="M219.437 213.268C219.437 214.592 218.61 215.089 217.451 214.427C216.293 213.764 215.465 212.274 215.465 210.949C215.465 209.625 216.293 209.128 217.451 209.79C218.444 210.287 219.437 211.943 219.437 213.268Z" fill="white"/>
<path d="M226.553 217.241C226.553 218.566 225.726 219.063 224.567 218.4C223.409 217.738 222.581 216.248 222.581 214.923C222.581 213.599 223.409 213.102 224.567 213.764C225.56 214.427 226.553 216.082 226.553 217.241Z" fill="#E5F2FE"/>
<path d="M233.669 221.381C233.669 222.706 232.842 223.202 231.683 222.54C230.525 221.878 229.697 220.388 229.697 219.063C229.697 217.738 230.525 217.242 231.683 217.904C232.842 218.566 233.669 220.222 233.669 221.381Z" fill="white"/>
<path d="M263.622 242.409L259.485 240.091C258.823 239.76 258.327 238.766 258.327 237.939V233.468C258.327 232.64 258.823 232.309 259.485 232.64L263.622 234.958C264.284 235.289 264.781 236.283 264.781 237.111V241.581C264.781 242.409 264.284 242.74 263.622 242.409Z" fill="#E5F2FE"/>
<path d="M269.58 284.797L182.037 234.131C180.051 232.971 178.562 229.991 178.562 227.342V210.619C178.562 207.969 180.216 206.81 182.037 207.969L269.58 258.47C271.566 259.629 273.055 262.61 273.055 265.259V281.982C273.221 284.632 271.566 285.956 269.58 284.797Z" fill="#5A84C4"/>
<path opacity="0.4" d="M267.098 278.836L184.519 231.15C183.526 230.653 182.699 228.998 182.699 227.673V215.089C182.699 213.764 183.526 213.102 184.519 213.764L267.098 261.451C268.091 261.947 268.918 263.603 268.918 264.928V277.512C268.918 278.836 268.091 279.499 267.098 278.836Z" fill="#E5F2FE"/>
<path d="M201.73 234.793L189.484 227.673C188.491 227.176 187.663 225.686 187.663 224.361C187.663 223.037 188.491 222.54 189.484 223.037L201.73 230.157C202.723 230.653 203.55 232.144 203.55 233.468C203.55 234.793 202.723 235.455 201.73 234.793Z" fill="#E5F2FE"/>
<path d="M212.321 238.601C212.321 239.926 211.494 240.422 210.335 239.76C209.177 239.098 208.349 237.608 208.349 236.283C208.349 234.958 209.177 234.462 210.335 235.124C211.328 235.621 212.321 237.276 212.321 238.601Z" fill="#2C3584"/>
<path d="M219.437 242.74C219.437 244.065 218.61 244.562 217.451 243.899C216.293 243.237 215.465 241.747 215.465 240.422C215.465 239.098 216.293 238.601 217.451 239.263C218.444 239.76 219.437 241.416 219.437 242.74Z" fill="#2C3584"/>
<path d="M226.553 246.714C226.553 248.039 225.726 248.536 224.567 247.874C223.409 247.211 222.581 245.721 222.581 244.396C222.581 243.072 223.409 242.575 224.567 243.237C225.56 243.9 226.553 245.555 226.553 246.714Z" fill="#E5F2FE"/>
<path d="M233.669 250.854C233.669 252.179 232.842 252.675 231.683 252.013C230.525 251.351 229.697 249.86 229.697 248.536C229.697 247.211 230.525 246.714 231.683 247.377C232.842 248.039 233.669 249.529 233.669 250.854Z" fill="#2C3584"/>
<path d="M263.622 271.882L259.485 269.564C258.823 269.233 258.327 268.239 258.327 267.411V262.941C258.327 262.113 258.823 261.782 259.485 262.113L263.622 264.431C264.284 264.762 264.781 265.756 264.781 266.584V271.054C264.781 271.882 264.284 272.213 263.622 271.882Z" fill="#2C3584"/>
<path d="M269.58 314.27L182.037 263.603C180.051 262.444 178.562 259.464 178.562 256.815V240.091C178.562 237.442 180.216 236.283 182.037 237.442L269.58 287.943C271.566 289.102 273.055 292.083 273.055 294.732V311.455C273.221 314.104 271.566 315.429 269.58 314.27Z" fill="#5A84C4"/>
<path opacity="0.4" d="M267.098 308.309L184.519 260.623C183.526 260.126 182.699 258.47 182.699 257.146V244.562C182.699 243.237 183.526 242.575 184.519 243.237L267.098 290.923C268.091 291.42 268.918 293.076 268.918 294.401V306.984C268.918 308.309 268.091 308.971 267.098 308.309Z" fill="#E5F2FE"/>
<path d="M201.73 264.266L189.484 257.146C188.491 256.649 187.663 255.159 187.663 253.834C187.663 252.51 188.491 252.013 189.484 252.51L201.73 259.629C202.723 260.126 203.55 261.616 203.55 262.941C203.55 264.266 202.723 264.762 201.73 264.266Z" fill="#E5F2FE"/>
<path d="M212.321 268.074C212.321 269.398 211.494 269.895 210.335 269.233C209.177 268.571 208.349 267.08 208.349 265.756C208.349 264.431 209.177 263.934 210.335 264.597C211.328 265.094 212.321 266.749 212.321 268.074Z" fill="white"/>
<path d="M219.437 272.048C219.437 273.372 218.61 273.869 217.451 273.207C216.293 272.545 215.465 271.054 215.465 269.73C215.465 268.405 216.293 267.908 217.451 268.571C218.444 269.233 219.437 270.889 219.437 272.048Z" fill="#2C3584"/>
<path d="M226.553 276.187C226.553 277.512 225.726 278.009 224.567 277.346C223.409 276.684 222.581 275.194 222.581 273.869C222.581 272.544 223.409 272.048 224.567 272.71C225.56 273.372 226.553 275.028 226.553 276.187Z" fill="#E5F2FE"/>
<path d="M233.669 280.327C233.669 281.651 232.842 282.148 231.683 281.486C230.525 280.823 229.697 279.333 229.697 278.008C229.697 276.684 230.525 276.187 231.683 276.849C232.842 277.512 233.669 279.002 233.669 280.327Z" fill="#2C3584"/>
<path d="M263.622 301.355L259.485 299.037C258.823 298.706 258.327 297.712 258.327 296.884V292.414C258.327 291.586 258.823 291.255 259.485 291.586L263.622 293.904C264.284 294.235 264.781 295.229 264.781 296.056V300.527C264.781 301.355 264.284 301.686 263.622 301.355Z" fill="#E5F2FE"/>
<path d="M316.579 279.83H314.758V181.146L326.508 174.523V125.843H328.163V175.516L316.579 182.139V279.83Z" fill="white"/>
<path d="M36.7383 301.189C35.7454 301.189 34.7525 300.858 33.7595 300.361L1.65488 282.148C0.661953 281.651 0.165489 280.658 0.165489 279.499C0.165489 278.34 0.661953 277.346 1.65488 276.85L81.9166 230.488C86.5502 227.839 92.1768 227.839 96.8105 230.488L188.491 283.473L187.001 285.625L95.3211 232.64C91.5149 230.488 86.8812 230.488 83.075 232.64L2.8133 279.002C2.64781 279.168 2.64781 279.333 2.64781 279.333C2.64781 279.499 2.64781 279.664 2.8133 279.664L34.918 297.878C36.0764 298.54 37.4003 298.54 38.3932 297.712L51.9632 288.937L53.4526 291.089L39.8826 299.865C39.0552 300.858 37.8967 301.189 36.7383 301.189Z" fill="#8FB8E9"/>
<path d="M78.6068 308.144L35.4144 283.142C32.7666 281.651 33.0976 279.002 36.0764 277.181L77.7793 253.172C80.9236 251.351 85.5573 251.185 88.2051 252.675L131.397 277.677C134.045 279.168 133.714 281.817 130.735 283.638L89.0325 307.813C85.8883 309.468 81.2546 309.634 78.6068 308.144Z" fill="#8FB8E9"/>
<path d="M145.795 258.636V239.926H103.926L89.529 231.481C86.2192 229.494 80.4272 229.825 76.6209 231.978L63.0509 239.76H21.1825V259.133C21.017 260.457 21.8444 261.616 23.3338 262.61L77.4484 293.904C80.7581 295.891 86.5502 295.56 90.3564 293.407L142.651 263.272C144.802 261.782 145.96 260.126 145.795 258.636Z" fill="#396CAA"/>
<path d="M83.4059 230.322C80.9236 230.322 78.4413 230.985 76.4554 232.144L62.8854 239.926H21.017V259.133C20.8515 260.457 21.6789 261.616 23.1683 262.61L77.4484 293.904C79.1033 294.897 81.2546 295.229 83.4059 295.229V230.322Z" fill="#396CAA"/>
<path d="M25.8161 239.926H21.017V259.133C20.8515 260.457 21.6789 261.616 23.1683 262.61L25.6506 264.1V239.926H25.8161Z" fill="#5A84C4"/>
<path d="M78.2758 294.235C81.0891 295.394 85.2263 295.394 88.7016 294.07V272.379H78.2758V294.235Z" fill="#5A84C4"/>
<path d="M77.4484 274.697L23.1683 243.403C19.8586 241.416 20.1895 238.104 24.1612 235.952L76.4554 205.817C80.2617 203.664 86.0537 203.333 89.3635 205.32L143.478 236.614C146.788 238.601 146.457 241.913 142.485 244.065L90.1909 274.2C86.5502 276.353 80.7581 276.684 77.4484 274.697Z" fill="#E5F2FE"/>
<path d="M78.4413 269.067L33.0976 242.906C30.2843 241.25 30.6153 238.436 33.925 236.614L77.7794 211.281C80.9236 209.46 85.8883 209.294 88.7016 210.784L134.045 236.945C136.859 238.601 136.528 241.416 133.218 243.237L89.3635 268.571C86.0538 270.392 81.0891 270.723 78.4413 269.067Z" fill="#5A84C4"/>
<path d="M125.936 263.603C125.936 264.928 124.943 266.749 123.785 267.412C122.627 268.074 121.634 267.577 121.634 266.087C121.634 264.762 122.627 262.941 123.785 262.279C124.943 261.616 125.936 262.113 125.936 263.603Z" fill="#E5F2FE"/>
<path d="M132.887 259.464C132.887 260.788 131.894 262.61 130.735 263.272C129.577 263.934 128.584 263.438 128.584 261.948C128.584 260.457 129.577 258.802 130.735 258.139C131.894 257.477 132.887 258.139 132.887 259.464Z" fill="#E5F2FE"/>
<path d="M140.003 255.49C140.003 256.815 139.01 258.636 137.851 259.298C136.693 259.961 135.7 259.464 135.7 257.974C135.7 256.649 136.693 254.828 137.851 254.166C139.01 253.503 140.003 254 140.003 255.49Z" fill="#E5F2FE"/>
<path d="M145.795 228.832V210.122H103.926L89.529 201.677C86.2192 199.69 80.4272 200.022 76.6209 202.174L63.0509 209.956H21.1825V229.163C21.017 230.488 21.8444 231.647 23.3338 232.64L77.4484 263.934C80.7581 265.921 86.5502 265.59 90.3564 263.438L142.651 233.303C144.802 231.978 145.96 230.322 145.795 228.832Z" fill="#396CAA"/>
<path d="M83.4059 200.353C80.9236 200.353 78.4413 201.015 76.4554 202.174L62.8854 209.956H21.017V229.163C20.8515 230.488 21.6789 231.647 23.1683 232.64L77.2829 263.934C78.9378 264.928 81.0891 265.259 83.2405 265.259V200.353H83.4059Z" fill="#396CAA"/>
<path d="M25.8161 209.956H21.017V229.163C20.8515 230.488 21.6789 231.647 23.1683 232.64L25.6506 234.131V209.956H25.8161Z" fill="#5A84C4"/>
<path d="M78.2758 264.431C81.0891 265.59 85.2263 265.59 88.7016 264.266V242.409H78.2758V264.431Z" fill="#5A84C4"/>
<path d="M77.4484 244.893L23.1683 213.599C19.8586 211.612 20.1895 208.3 24.1612 206.148L76.4554 176.013C80.2617 173.86 86.0537 173.529 89.3635 175.516L143.478 206.81C146.788 208.797 146.457 212.109 142.485 214.261L90.3564 244.231C86.5502 246.549 80.7581 246.714 77.4484 244.893Z" fill="#E5F2FE"/>
<path d="M78.4413 239.264L33.0976 213.102C30.2843 211.447 30.6153 208.632 33.925 206.81L77.6139 181.311C80.7581 179.49 85.7228 179.325 88.5361 180.815L133.88 206.976C136.693 208.632 136.362 211.447 133.052 213.268L89.198 238.601C86.0538 240.588 81.0891 240.754 78.4413 239.264Z" fill="#5A84C4"/>
<path d="M125.936 233.634C125.936 234.958 124.943 236.78 123.785 237.442C122.627 238.104 121.634 237.608 121.634 236.117C121.634 234.793 122.627 232.971 123.785 232.309C124.943 231.647 125.936 232.309 125.936 233.634Z" fill="#E5F2FE"/>
<path d="M132.887 229.66C132.887 230.984 131.894 232.806 130.735 233.468C129.577 234.13 128.584 233.634 128.584 232.143C128.584 230.819 129.577 228.998 130.735 228.335C131.894 227.673 132.887 228.17 132.887 229.66Z" fill="#E5F2FE"/>
<path d="M140.003 225.52C140.003 226.845 139.01 228.666 137.851 229.329C136.693 229.991 135.7 229.494 135.7 228.004C135.7 226.68 136.693 224.858 137.851 224.196C139.01 223.534 140.003 224.196 140.003 225.52Z" fill="#E5F2FE"/>
<path d="M145.795 198.862V180.152H103.926L89.529 171.708C86.2192 169.721 80.4272 170.052 76.6209 172.205L63.0509 179.987H21.1825V199.194C21.017 200.518 21.8444 201.677 23.3338 202.671L77.4484 233.965C80.7581 235.952 86.5502 235.621 90.3564 233.468L142.651 203.333C144.802 202.008 145.96 200.353 145.795 198.862Z" fill="#396CAA"/>
<path d="M83.4059 170.549C80.9236 170.549 78.4413 171.211 76.4554 172.37L62.8854 180.152H21.017V199.359C20.8515 200.684 21.6789 201.843 23.1683 202.836L77.2829 234.131C78.9378 235.124 81.0891 235.455 83.2405 235.455V170.549H83.4059Z" fill="#396CAA"/>
<path d="M25.8161 180.152H21.017V199.359C20.8515 200.684 21.6789 201.843 23.1683 202.836L25.6506 204.327V180.152H25.8161Z" fill="#5A84C4"/>
<path d="M78.2758 234.462C81.0891 235.621 85.2263 235.621 88.7016 234.296V212.44H78.2758V234.462Z" fill="#5A84C4"/>
<path d="M77.4484 214.924L23.1683 183.629C19.8586 181.643 20.1895 178.331 24.1612 176.178L76.4554 146.043C80.2617 143.891 86.0537 143.56 89.3635 145.547L143.478 176.841C146.788 178.828 146.457 182.139 142.485 184.292L90.3564 214.427C86.5502 216.579 80.7581 216.911 77.4484 214.924Z" fill="#E5F2FE"/>
<path d="M142.651 180.484L90.3564 210.619C86.5502 212.771 80.7581 213.102 77.4484 211.115L23.1683 179.987C22.5064 179.49 21.8444 178.993 21.5134 178.497C20.355 180.318 20.8515 182.305 23.1683 183.63L77.2829 214.924C80.5926 216.911 86.3847 216.579 90.1909 214.427L142.485 184.292C145.464 182.636 146.291 180.152 145.133 178.331C144.636 178.993 143.809 179.821 142.651 180.484Z" fill="white"/>
<path d="M125.936 203.83C125.936 205.155 124.943 206.976 123.785 207.638C122.627 208.301 121.634 207.804 121.634 206.314C121.634 204.989 122.627 203.168 123.785 202.505C124.943 201.843 125.936 202.34 125.936 203.83Z" fill="#E5F2FE"/>
<path d="M132.887 199.691C132.887 201.015 131.894 202.837 130.735 203.499C129.577 204.161 128.584 203.664 128.584 202.174C128.584 200.85 129.577 199.028 130.735 198.366C131.894 197.869 132.887 198.366 132.887 199.691Z" fill="#E5F2FE"/>
<path d="M140.003 195.717C140.003 197.041 139.01 198.863 137.851 199.525C136.693 200.187 135.7 199.691 135.7 198.2C135.7 196.876 136.693 195.054 137.851 194.392C139.01 193.73 140.003 194.226 140.003 195.717Z" fill="#E5F2FE"/>
<path d="M80.5914 195.55L55.2718 180.979C53.7824 180.151 53.9479 178.496 55.7682 177.502L80.2604 163.428C82.0808 162.435 84.7286 162.269 86.3835 163.097L111.703 177.668C113.193 178.496 113.027 180.151 111.207 181.145L86.7145 195.219C84.8941 196.378 82.0808 196.378 80.5914 195.55Z" fill="#00BFFF"/>
<path d="M83.075 183.298L79.4342 181.311C79.2687 181.146 79.2687 180.98 79.4342 180.815L82.744 178.828C83.075 178.662 83.4059 178.662 83.5714 178.828L87.0467 180.815C87.2122 180.98 87.2122 181.146 87.0467 181.311L83.7369 183.298C83.5714 183.464 83.2404 183.464 83.075 183.298Z" fill="#E5F2FE"/>
<path d="M55.273 180.98C55.4385 180.98 55.604 180.815 55.7695 180.815L80.2617 166.741C82.082 165.747 84.7299 165.582 86.3847 166.409L111.704 180.98C113.194 179.987 113.194 178.497 111.704 177.669L86.2192 163.098C84.7298 162.27 81.9166 162.27 80.0962 163.429L55.604 177.503C53.9491 178.497 53.6181 179.987 55.273 180.98Z" fill="#396CAA"/>
<path d="M73.9731 220.388C73.9731 221.381 73.3112 221.712 72.4837 221.216C71.6563 220.719 70.9943 219.56 70.9943 218.732C70.9943 217.738 71.6563 217.407 72.4837 217.904C73.3112 218.401 73.9731 219.394 73.9731 220.388Z" fill="#E5F2FE"/>
<path d="M69.3394 217.738C69.3394 218.732 68.6775 219.063 67.8501 218.566C67.0226 218.07 66.3607 216.911 66.3607 216.083C66.3607 215.089 67.0226 214.758 67.8501 215.255C68.6775 215.752 69.3394 216.911 69.3394 217.738Z" fill="#E5F2FE"/>
<path d="M73.9731 225.852C73.9731 226.845 73.3112 227.176 72.4837 226.68C71.6563 226.183 70.9943 225.024 70.9943 224.196C70.9943 223.203 71.6563 222.871 72.4837 223.368C73.3112 223.865 73.9731 225.024 73.9731 225.852Z" fill="#E5F2FE"/>
<path d="M69.3394 223.368C69.3394 224.362 68.6775 224.693 67.8501 224.196C67.0226 223.699 66.3607 222.54 66.3607 221.712C66.3607 220.719 67.0226 220.388 67.8501 220.884C68.6775 221.216 69.3394 222.375 69.3394 223.368Z" fill="#E5F2FE"/>
<path d="M73.9731 250.192C73.9731 251.185 73.3112 251.516 72.4837 251.019C71.6563 250.523 70.9943 249.364 70.9943 248.536C70.9943 247.542 71.6563 247.211 72.4837 247.708C73.3112 248.039 73.9731 249.198 73.9731 250.192Z" fill="#E5F2FE"/>
<path d="M69.3394 247.542C69.3394 248.536 68.6775 248.867 67.8501 248.37C67.0226 247.874 66.3607 246.715 66.3607 245.887C66.3607 244.893 67.0226 244.562 67.8501 245.059C68.6775 245.39 69.3394 246.549 69.3394 247.542Z" fill="#E5F2FE"/>
<path d="M73.9731 255.656C73.9731 256.649 73.3112 256.98 72.4837 256.484C71.6563 255.987 70.9943 254.828 70.9943 254C70.9943 253.006 71.6563 252.675 72.4837 253.172C73.3112 253.503 73.9731 254.662 73.9731 255.656Z" fill="#E5F2FE"/>
<path d="M69.3394 253.007C69.3394 254 68.6775 254.331 67.8501 253.834C67.0226 253.338 66.3607 252.179 66.3607 251.351C66.3607 250.357 67.0226 250.026 67.8501 250.523C68.6775 251.02 69.3394 252.013 69.3394 253.007Z" fill="#E5F2FE"/>
<path d="M73.9731 279.83C73.9731 280.823 73.3112 281.154 72.4837 280.658C71.6563 280.161 70.9943 279.002 70.9943 278.174C70.9943 277.181 71.6563 276.849 72.4837 277.346C73.3112 277.843 73.9731 278.836 73.9731 279.83Z" fill="#E5F2FE"/>
<path d="M69.3394 277.181C69.3394 278.174 68.6775 278.505 67.8501 278.009C67.0226 277.512 66.3607 276.353 66.3607 275.525C66.3607 274.531 67.0226 274.2 67.8501 274.697C68.6775 275.194 69.3394 276.353 69.3394 277.181Z" fill="#E5F2FE"/>
<path d="M73.9731 285.294C73.9731 286.287 73.3112 286.619 72.4837 286.122C71.6563 285.625 70.9943 284.466 70.9943 283.638C70.9943 282.645 71.6563 282.314 72.4837 282.81C73.3112 283.307 73.9731 284.466 73.9731 285.294Z" fill="#E5F2FE"/>
<path d="M69.3394 282.81C69.3394 283.804 68.6775 284.135 67.8501 283.638C67.0226 283.141 66.3607 281.982 66.3607 281.154C66.3607 280.161 67.0226 279.83 67.8501 280.327C68.6775 280.658 69.3394 281.817 69.3394 282.81Z" fill="#E5F2FE"/>
<path d="M84.0679 330.331C82.5785 330.331 80.9236 330 79.5997 329.172L52.2942 313.277C51.3013 312.78 50.8048 311.786 50.8048 310.627C50.8048 309.634 51.3013 308.64 52.2942 307.978L70.1669 297.547L71.4908 299.865L53.6181 310.462C53.4526 310.462 53.4526 310.627 53.4526 310.793C53.4526 310.958 53.4526 310.958 53.6181 311.124L80.9236 327.019C82.9095 328.179 85.2263 328.179 87.2122 327.019L140.665 296.388C143.478 294.897 146.788 294.897 149.601 296.388L194.448 322.218C196.434 323.377 198.751 323.377 200.737 322.218L222.25 309.799L223.574 312.118L202.061 324.536C199.247 326.192 195.938 326.192 193.124 324.536L148.443 298.706C146.457 297.547 144.14 297.547 142.154 298.706L88.7016 329.172C87.2122 330 85.5573 330.331 84.0679 330.331Z" fill="#8FB8E9"/>
<path d="M321.047 431.168L277.854 406.166C275.207 404.675 275.538 402.026 278.516 400.205L320.219 376.03C323.364 374.209 327.997 374.044 330.645 375.534L373.837 400.536C376.485 402.026 376.154 404.675 373.175 406.497L331.472 430.671C328.494 432.492 323.86 432.658 321.047 431.168Z" fill="#8FB8E9"/>
<path d="M388.4 381.66V362.95H346.532L332.134 354.505C328.825 352.518 323.033 352.849 319.226 355.002L305.656 362.784H263.788V381.991C263.622 383.316 264.45 384.475 265.939 385.468L320.054 416.762C323.364 418.749 329.156 418.418 332.962 416.265L385.256 386.13C387.407 384.806 388.4 383.15 388.4 381.66Z" fill="#396CAA"/>
<path d="M326.011 353.346C323.529 353.346 321.047 354.009 319.061 355.168L305.491 362.95H263.622V382.157C263.457 383.481 264.284 384.64 265.774 385.634L319.888 416.928C321.543 417.921 323.694 418.253 325.846 418.253V353.346H326.011Z" fill="#396CAA"/>
<path d="M268.256 362.95H263.457V382.157C263.291 383.481 264.119 384.64 265.608 385.634L268.091 387.124V362.95H268.256Z" fill="#5A84C4"/>
<path d="M320.716 417.259C323.529 418.418 327.666 418.418 331.141 417.094V395.237H320.716V417.259Z" fill="#5A84C4"/>
<path d="M319.887 397.721L265.773 366.427C262.463 364.44 262.794 361.128 266.765 358.976L319.06 328.841C322.866 326.688 328.658 326.357 331.968 328.344L386.082 359.638C389.392 361.625 389.061 364.937 385.089 367.089L332.795 397.224C328.989 399.377 323.197 399.708 319.887 397.721Z" fill="#E5F2FE"/>
<path d="M320.881 392.091L275.538 365.93C272.724 364.274 273.055 361.46 276.365 359.638L320.219 334.305C323.364 332.483 328.328 332.318 331.141 333.808L376.485 359.969C379.298 361.625 378.967 364.44 375.658 366.261L331.803 391.595C328.494 393.416 323.694 393.747 320.881 392.091Z" fill="#5A84C4"/>
<path d="M368.376 386.627C368.376 387.952 367.383 389.773 366.225 390.435C365.067 391.098 364.074 390.601 364.074 389.111C364.074 387.786 365.067 385.965 366.225 385.302C367.383 384.64 368.376 385.137 368.376 386.627Z" fill="#E5F2FE"/>
<path d="M375.492 382.488C375.492 383.812 374.499 385.634 373.341 386.296C372.182 386.958 371.19 386.462 371.19 384.971C371.19 383.647 372.182 381.825 373.341 381.163C374.499 380.501 375.492 381.163 375.492 382.488Z" fill="#E5F2FE"/>
<path d="M382.443 378.514C382.443 379.838 381.45 381.66 380.291 382.322C379.133 382.984 378.14 382.488 378.14 380.998C378.14 379.673 379.133 377.852 380.291 377.189C381.45 376.527 382.443 377.024 382.443 378.514Z" fill="#E5F2FE"/>
<path d="M388.4 351.856V333.146H346.532L332.134 324.701C328.825 322.714 323.033 323.045 319.226 325.198L305.656 332.98H263.788V352.187C263.622 353.512 264.45 354.671 265.939 355.664L320.054 386.958C323.364 388.945 329.156 388.614 332.962 386.462L385.256 356.326C387.407 355.002 388.4 353.346 388.4 351.856Z" fill="#396CAA"/>
<path d="M326.011 323.377C323.529 323.377 321.047 324.039 319.061 325.198L305.491 332.98H263.622V352.187C263.457 353.512 264.284 354.671 265.774 355.664L319.888 386.958C321.543 387.952 323.694 388.283 325.846 388.283V323.377H326.011Z" fill="#396CAA"/>
<path d="M268.256 332.98H263.457V352.187C263.291 353.512 264.119 354.671 265.608 355.664L268.091 357.155V332.98H268.256Z" fill="#5A84C4"/>
<path d="M320.716 387.455C323.529 388.614 327.666 388.614 331.141 387.29V365.433H320.716V387.455Z" fill="#5A84C4"/>
<path d="M319.887 367.751L265.773 336.457C262.463 334.47 262.794 331.159 266.765 329.006L319.06 298.871C322.866 296.719 328.658 296.388 331.968 298.375L386.082 329.669C389.392 331.656 389.061 334.967 385.089 337.12L332.795 367.255C328.989 369.573 323.197 369.738 319.887 367.751Z" fill="#E5F2FE"/>
<path d="M320.881 362.122L275.538 335.961C272.724 334.305 273.055 331.49 276.365 329.669L320.219 304.335C323.364 302.514 328.328 302.348 331.141 303.839L376.485 330C379.298 331.656 378.967 334.47 375.658 336.292L331.803 361.791C328.494 363.612 323.694 363.778 320.881 362.122Z" fill="#5A84C4"/>
<path d="M368.376 356.658C368.376 357.982 367.383 359.804 366.225 360.466C365.067 361.128 364.074 360.632 364.074 359.141C364.074 357.817 365.067 355.995 366.225 355.333C367.383 354.671 368.376 355.333 368.376 356.658Z" fill="#E5F2FE"/>
<path d="M375.492 352.684C375.492 354.008 374.499 355.83 373.341 356.492C372.182 357.154 371.19 356.658 371.19 355.167C371.19 353.843 372.182 352.021 373.341 351.359C374.499 350.697 375.492 351.194 375.492 352.684Z" fill="#E5F2FE"/>
<path d="M382.443 348.544C382.443 349.869 381.45 351.69 380.291 352.353C379.133 353.015 378.14 352.518 378.14 351.028C378.14 349.703 379.133 347.882 380.291 347.22C381.45 346.557 382.443 347.22 382.443 348.544Z" fill="#E5F2FE"/>
<path d="M388.4 321.887V303.176H346.532L332.134 294.732C328.825 292.745 323.033 293.076 319.226 295.229L305.656 303.011H263.788V322.218C263.622 323.542 264.45 324.701 265.939 325.695L320.054 356.989C323.364 358.976 329.156 358.645 332.962 356.492L385.256 326.357C387.407 325.033 388.4 323.377 388.4 321.887Z" fill="#396CAA"/>
<path d="M326.011 293.573C323.529 293.573 321.047 294.235 319.061 295.394L305.491 303.176H263.622V322.383C263.457 323.708 264.284 324.867 265.774 325.86L319.888 357.154C321.543 358.148 323.694 358.479 325.846 358.479V293.573H326.011Z" fill="#396CAA"/>
<path d="M268.256 303.176H263.457V322.383C263.291 323.708 264.119 324.867 265.608 325.86L268.091 327.351V303.176H268.256Z" fill="#5A84C4"/>
<path d="M320.716 357.486C323.529 358.645 327.666 358.645 331.141 357.32V335.464H320.716V357.486Z" fill="#5A84C4"/>
<path d="M319.887 337.948L265.773 306.653C262.463 304.666 262.794 301.355 266.765 299.202L319.06 269.067C322.866 266.915 328.658 266.584 331.968 268.571L386.082 299.865C389.392 301.852 389.061 305.163 385.089 307.316L332.795 337.451C328.989 339.603 323.197 339.934 319.887 337.948Z" fill="#E5F2FE"/>
<path d="M385.09 303.507L332.796 333.642C328.99 335.795 323.198 336.126 319.888 334.139L265.774 302.845C265.112 302.348 264.45 301.852 264.119 301.355C262.96 303.176 263.457 305.163 265.774 306.488L319.888 337.782C323.198 339.769 328.99 339.438 332.796 337.285L385.09 307.15C388.069 305.494 388.897 303.011 387.738 301.189C387.242 302.017 386.414 302.845 385.09 303.507Z" fill="white"/>
<path d="M368.376 326.854C368.376 328.178 367.383 330 366.225 330.662C365.067 331.324 364.074 330.828 364.074 329.338C364.074 328.013 365.067 326.192 366.225 325.529C367.383 324.867 368.376 325.364 368.376 326.854Z" fill="#E5F2FE"/>
<path d="M375.492 322.714C375.492 324.039 374.499 325.86 373.341 326.523C372.182 327.185 371.19 326.688 371.19 325.198C371.19 323.873 372.182 322.052 373.341 321.39C374.499 320.727 375.492 321.39 375.492 322.714Z" fill="#E5F2FE"/>
<path d="M382.443 318.741C382.443 320.065 381.45 321.887 380.291 322.549C379.133 323.211 378.14 322.715 378.14 321.224C378.14 319.9 379.133 318.078 380.291 317.416C381.45 316.754 382.443 317.25 382.443 318.741Z" fill="#E5F2FE"/>
<path d="M323.197 318.575L297.878 304.004C296.388 303.176 296.554 301.52 298.374 300.527L322.866 286.453C324.687 285.459 327.335 285.294 328.989 286.122L354.309 300.692C355.798 301.52 355.633 303.176 353.813 304.17L329.32 318.244C327.335 319.403 324.687 319.403 323.197 318.575Z" fill="#00BFFF"/>
<path d="M325.515 306.322L322.04 304.335C321.874 304.17 321.874 304.004 322.04 303.839L325.349 301.852C325.68 301.686 326.011 301.686 326.177 301.852L329.652 303.839C329.818 304.004 329.818 304.17 329.652 304.335L326.342 306.322C326.177 306.488 325.68 306.488 325.515 306.322Z" fill="#E5F2FE"/>
<path d="M297.713 304.004C297.878 304.004 298.044 303.839 298.209 303.839L322.702 289.765C324.522 288.771 327.17 288.605 328.825 289.433L354.144 304.004C355.634 303.011 355.634 301.52 354.144 300.693L328.825 286.122C327.335 285.294 324.522 285.294 322.702 286.453L298.209 300.527C296.389 301.52 296.223 303.011 297.713 304.004Z" fill="#396CAA"/>
<path d="M251.707 19.2111C251.707 19.8734 251.045 20.5357 250.383 20.5357C249.721 20.5357 249.059 19.8734 249.059 19.2111C249.059 18.5488 249.721 17.8865 250.383 17.8865C251.211 17.8865 251.707 18.5488 251.707 19.2111Z" fill="#E5F2FE"/>
<path d="M263.788 26.4965C263.788 27.1588 263.126 27.8211 262.464 27.8211C261.802 27.8211 261.14 27.1588 261.14 26.4965C261.14 25.8342 261.802 25.1719 262.464 25.1719C263.291 25.1719 263.788 25.8342 263.788 26.4965Z" fill="#E5F2FE"/>
<path d="M274.545 35.1065C275.276 35.1065 275.868 34.5135 275.868 33.7819C275.868 33.0503 275.276 32.4573 274.545 32.4573C273.813 32.4573 273.221 33.0503 273.221 33.7819C273.221 34.5135 273.813 35.1065 274.545 35.1065Z" fill="#E5F2FE"/>
<path d="M287.949 40.7362C287.949 41.3986 287.287 42.0609 286.625 42.0609C285.963 42.0609 285.301 41.3986 285.301 40.7362C285.301 40.0739 285.963 39.4116 286.625 39.4116C287.453 39.4116 287.949 40.0739 287.949 40.7362Z" fill="#E5F2FE"/>
</g>
<defs>
<clipPath id="clip0">
<rect width="468" height="456" fill="white" transform="translate(0 0.832031)"/>
</clipPath>
</defs>
</svg>
