<svg width="793" height="281" viewBox="0 0 793 281" fill="none" xmlns="http://www.w3.org/2000/svg">
<mask id="mask0" mask-type="alpha" maskUnits="userSpaceOnUse" x="0" y="0" width="793" height="281">
<rect y="0.912476" width="793" height="280" rx="8" fill="white"/>
</mask>
<g mask="url(#mask0)">
<circle opacity="0.5" cx="740.114" cy="259.017" r="256.446" stroke="#FFE69C" stroke-width="2"/>
<circle opacity="0.3" cx="740.114" cy="259.017" r="296.032" stroke="#FFE69C" stroke-width="2"/>
<circle cx="740.114" cy="259.017" r="218.6" stroke="#FFE69C" stroke-width="2"/>
<path d="M718.938 224.151L718.938 224.15L718.929 224.158C716.178 226.566 714.086 229.643 712.981 233.072H694.774C693.668 229.642 691.569 226.561 688.642 224.15C683.369 219.727 680.137 213.093 680.307 205.604C680.648 193.522 690.524 183.312 702.595 182.802L702.599 182.802C716.212 182.121 727.274 193.011 727.274 206.286C727.274 213.433 724.041 219.898 718.938 224.151Z" fill="#FFD15C" stroke="black"/>
<path d="M701.531 233.92H703.095L696.143 208.024C696.317 208.024 696.491 208.024 696.665 208.024C697.534 208.024 698.403 207.677 699.098 206.981C699.445 206.634 699.793 206.46 700.314 206.46C700.836 206.46 701.183 206.634 701.531 206.981C702.748 208.372 704.833 208.372 706.05 206.981C706.397 206.634 706.745 206.46 707.266 206.46C707.614 206.46 708.135 206.634 708.483 206.981C709.178 207.677 709.873 208.024 710.916 208.024C711.09 208.024 711.263 208.024 711.437 208.024L704.659 233.92H706.223L713.349 206.808C713.349 206.46 713.349 206.112 713.001 205.939C712.654 205.765 712.306 205.939 712.133 206.113C711.785 206.46 711.437 206.634 711.09 206.634C710.568 206.634 710.221 206.46 709.699 206.113C709.004 205.417 708.309 205.07 707.44 205.07C706.571 205.07 705.876 205.417 705.181 206.113C704.485 206.808 703.443 206.808 702.748 206.113C702.226 205.417 701.357 205.07 700.488 205.07C699.619 205.07 698.75 205.417 698.229 206.113C697.881 206.46 697.36 206.634 696.839 206.634C696.491 206.634 695.97 206.46 695.796 206.113C695.622 205.939 695.274 205.765 694.927 205.939C694.579 206.113 694.405 206.46 694.579 206.808L701.531 233.92Z" fill="black"/>
<path d="M698.403 249.561C699.272 251.647 701.357 253.211 703.79 253.211C706.224 253.211 708.309 251.647 709.178 249.561H698.403Z" fill="url(#paint0_linear)"/>
<path d="M710.221 249.735H697.534C695.796 249.735 694.405 248.345 694.405 246.607V233.583H713.349V246.607C713.349 248.345 711.959 249.735 710.221 249.735Z" fill="url(#paint1_linear)"/>
<path d="M713.175 240.002H694.405C693.363 240.002 692.494 239.134 692.494 238.091C692.494 237.048 693.363 236.179 694.405 236.179H713.175C714.218 236.179 715.087 237.048 715.087 238.091C715.087 239.134 714.218 240.002 713.175 240.002Z" fill="#2C3584"/>
<path d="M713.175 246.085H694.405C693.363 246.085 692.494 245.216 692.494 244.174C692.494 243.131 693.363 242.262 694.405 242.262H713.175C714.218 242.262 715.087 243.131 715.087 244.174C715.087 245.216 714.218 246.085 713.175 246.085Z" fill="#2C3584"/>
<path d="M703.79 169.289C702.678 169.289 701.552 170.176 701.552 171.527V177.436C701.552 178.548 702.44 179.674 703.79 179.674C704.425 179.674 704.993 179.46 705.404 179.05C705.815 178.639 706.028 178.071 706.028 177.436V171.527C706.028 170.176 704.902 169.289 703.79 169.289Z" fill="#FFD15C" stroke="black"/>
<path d="M680.855 180.037C679.965 179.147 678.606 179.147 677.715 180.037C676.825 180.928 676.825 182.287 677.715 183.177C677.715 183.177 677.715 183.177 677.715 183.177L681.886 187.348C682.777 188.239 684.136 188.239 685.027 187.348C685.917 186.458 685.917 185.099 685.027 184.208C685.026 184.208 685.026 184.208 685.026 184.208L680.855 180.037Z" fill="#FFD15C" stroke="black"/>
<path d="M675.114 203.875H669.205C668.093 203.875 666.967 204.762 666.967 206.113C666.967 207.225 667.854 208.351 669.205 208.351H675.114C676.226 208.351 677.352 207.463 677.352 206.113C677.352 205.515 677.059 204.96 676.663 204.564C676.266 204.168 675.711 203.875 675.114 203.875Z" fill="#FFD15C" stroke="black"/>
<path d="M681.886 224.876L677.715 229.048C676.825 229.938 676.825 231.297 677.715 232.188C678.605 233.078 679.965 233.078 680.855 232.188C680.855 232.188 680.855 232.188 680.855 232.188L685.026 228.017C685.917 227.126 685.917 225.767 685.026 224.876C684.136 223.986 682.777 223.986 681.886 224.876Z" fill="#FFD15C" stroke="black"/>
<path d="M725.695 224.876L725.695 224.876C724.804 223.986 723.445 223.986 722.554 224.876C721.664 225.767 721.664 227.126 722.554 228.017C722.554 228.017 722.554 228.017 722.554 228.017L726.725 232.188C727.616 233.078 728.975 233.078 729.866 232.188C730.756 231.297 730.756 229.938 729.866 229.047C729.865 229.047 729.865 229.047 729.865 229.047L725.695 224.876Z" fill="#FFD15C" stroke="black"/>
<path d="M740.614 206.113V206.112C740.613 205 739.727 203.875 738.376 203.875H732.467C731.355 203.875 730.229 204.762 730.229 206.113C730.229 207.225 731.116 208.351 732.467 208.351H738.376C739.488 208.351 740.614 207.463 740.614 206.113Z" fill="#FFD15C" stroke="black"/>
<path d="M729.521 180.382L729.865 180.037C730.756 180.928 730.756 182.287 729.865 183.177L725.694 187.348C725.694 187.348 725.694 187.348 725.694 187.348C724.804 188.239 723.445 188.239 722.554 187.349L729.521 180.382ZM729.521 180.382L729.865 180.037C728.975 179.147 727.616 179.147 726.725 180.037L722.554 184.208M729.521 180.382L722.554 184.208M722.554 184.208C721.664 185.099 721.664 186.458 722.554 187.348L722.554 184.208Z" fill="#FFD15C" stroke="black"/>
</g>
<defs>
<linearGradient id="paint0_linear" x1="698.402" y1="251.386" x2="709.176" y2="251.386" gradientUnits="userSpaceOnUse">
<stop stop-color="#184E9C"/>
<stop offset="0.8501" stop-color="#1F6BD8"/>
</linearGradient>
<linearGradient id="paint1_linear" x1="694.404" y1="241.66" x2="713.346" y2="241.66" gradientUnits="userSpaceOnUse">
<stop stop-color="#184E9C"/>
<stop offset="0.8501" stop-color="#1F6BD8"/>
</linearGradient>
</defs>
</svg>
