<svg width="82" height="44" viewBox="0 0 82 44" fill="none" xmlns="http://www.w3.org/2000/svg">
<path fill-rule="evenodd" clip-rule="evenodd" d="M6.52595 16.5773L10.4037 16.6011C12.8627 16.7914 14.9671 17.8378 16.6932 19.6692C18.4193 21.5243 19.2705 23.7124 19.2705 26.2573V26.7805V34.1773C19.2705 36.8649 18.3247 39.1481 16.4331 41.0508C14.5415 42.9535 12.2716 43.9049 9.62341 43.9049C6.95156 43.9049 4.68166 42.9535 2.81373 41.0508C0.94579 39.1481 0 36.8649 0 34.2011V30.8951L0.0236448 30.8714C0 30.7524 0 30.6097 0 30.3957C0 29.4443 0.331026 28.6119 0.969435 27.9222C1.63149 27.2324 2.41176 26.8519 3.35755 26.8043H3.54671H3.92503H6.78604H12.4608V26.3762C12.4608 26.067 12.4371 25.8054 12.3662 25.5914C12.0352 24.4973 11.3968 23.8314 10.4037 23.546H6.57324C6.5496 23.546 6.52595 23.546 6.50231 23.546C6.47866 23.546 6.24221 23.546 5.76932 23.546C5.29642 23.546 4.70531 23.213 4.04325 22.547C3.35756 21.8811 3.02653 21.0487 3.02653 20.0973C3.02653 19.146 3.35756 18.3373 4.04325 17.6476C4.70531 16.9578 5.53287 16.6249 6.47866 16.6249C6.50231 16.6249 6.50231 16.6249 6.52595 16.6249V16.5773ZM6.80969 33.6541V34.32C6.92791 36.08 7.8737 36.9838 9.62341 37.0314C11.3731 36.9838 12.3189 36.08 12.4608 34.32V33.6541H6.80969ZM39.2739 23.5222C39.4158 23.9027 39.4867 24.2832 39.4867 24.6876C39.4867 25.6865 39.1321 26.5189 38.4227 27.2324C37.737 27.946 36.8858 28.3027 35.9164 28.3027C34.1667 28.3027 33.0317 27.4703 32.5115 25.7816H32.4879C31.9913 24.7589 31.1638 24.2595 30.0288 24.2595C29.2722 24.2595 28.6338 24.5211 28.09 25.0681C27.5461 25.6151 27.286 26.2573 27.286 27.0184V33.4638C27.286 34.2487 27.5461 34.8908 28.09 35.4378C28.6338 35.9849 29.2722 36.2465 30.0288 36.2465C31.1638 36.2465 31.9913 35.7232 32.4879 34.6768C33.0081 33.0119 34.143 32.1795 35.9164 32.1795C36.8858 32.1795 37.7134 32.5362 38.4227 33.2497C39.1321 33.9632 39.4867 34.7957 39.4867 35.7708C39.4867 36.1989 39.4158 36.5795 39.2739 36.96C38.6828 38.9578 37.5242 40.6227 35.8454 41.9308C34.143 43.2389 32.2278 43.9049 30.0525 43.9049C27.3806 43.9049 25.1107 42.9535 23.2428 41.0508C21.3749 39.1481 20.4291 36.8649 20.4291 34.1773V26.2811C20.4291 23.6173 21.3749 21.3341 23.2428 19.4314C25.1344 17.5287 27.4043 16.5773 30.0525 16.5773C32.2278 16.5773 34.143 17.2432 35.8454 18.5514C37.5242 19.8832 38.6828 21.5243 39.2739 23.5222ZM72.3529 16.5773C75.0012 16.5773 77.271 17.5287 79.1626 19.4314C81.0542 21.3341 82 23.6173 82 26.2811V34.1773C82 36.8649 81.0542 39.1481 79.1626 41.0508C77.271 42.9535 75.0012 43.9049 72.3529 43.9049C69.6811 43.9049 67.4112 42.9535 65.5433 41.0508C63.6753 39.1481 62.7295 36.8649 62.7295 34.1773V26.2811C62.7295 23.6173 63.6753 21.3341 65.5433 19.4314C67.4112 17.5287 69.6811 16.5773 72.3529 16.5773ZM72.3529 24.2595C71.5963 24.2595 70.9579 24.5211 70.4141 25.0681C69.8702 25.6151 69.6102 26.2573 69.6102 27.0184V33.4638C69.6102 34.2487 69.8702 34.8908 70.4141 35.4378C70.9579 35.9849 71.5963 36.2465 72.3529 36.2465C73.1096 36.2465 73.748 35.9611 74.2918 35.4378C74.8356 34.8908 75.1194 34.2487 75.1194 33.4638V27.0184C75.1194 26.2573 74.8356 25.6151 74.2918 25.0681C73.748 24.5211 73.0859 24.2595 72.3529 24.2595Z" fill="#9EA1BA"/>
<path fill-rule="evenodd" clip-rule="evenodd" d="M48.0225 3.94811V25.0205L55.3524 17.6476C55.376 17.6238 55.376 17.6238 55.3997 17.6C55.4233 17.5762 55.447 17.5524 55.4706 17.5049C56.1799 16.7913 57.0312 16.4346 58.0479 16.4346C59.0646 16.4346 59.9158 16.7913 60.6252 17.5049C61.3109 18.2184 61.6655 19.0746 61.6655 20.0973C61.6655 21.12 61.3109 21.9762 60.6252 22.6659L53.1534 30.2054L60.5542 37.6259L60.6252 37.6735C60.6252 37.6973 60.6252 37.6973 60.6252 37.6973C60.6252 37.6973 60.8143 37.8876 61.1453 38.2443C61.5 38.6011 61.6655 39.2908 61.6655 40.3135C61.6655 41.3362 61.3109 42.1924 60.6252 42.8822C59.9158 43.5957 59.0646 43.9524 58.0479 43.9524C57.0312 43.9524 56.1799 43.5957 55.4706 42.8822C55.3997 42.8108 55.3524 42.7632 55.3524 42.7395C55.3524 42.7395 55.3524 42.7395 55.3287 42.7395C55.3287 42.7395 54.9031 42.2876 54.0519 41.4551L47.9989 35.3903V40.0519C47.9989 40.0995 47.9989 40.147 47.9989 40.1946C47.9989 40.2422 47.9989 40.2897 47.9989 40.3373C47.9989 40.3611 47.9989 40.6227 47.9989 41.1222C47.9989 41.6216 47.6442 42.24 46.9348 42.9297C46.2255 43.6432 45.3743 43.9762 44.4049 43.9762C43.4118 43.9762 42.5606 43.6195 41.8512 42.9297C41.1419 42.2162 40.8109 41.36 40.8109 40.3611V40.3373V3.61513C40.8109 2.61622 41.1655 1.78378 41.8512 1.07027C42.5606 0.356757 43.4118 0 44.4049 0C45.3979 0 46.2255 0.356757 46.9348 1.07027C47.6442 1.78378 47.9989 2.64 47.9989 3.61513C47.9989 3.68649 47.9989 3.73405 47.9989 3.78162C48.0225 3.85297 48.0225 3.90054 48.0225 3.94811Z" fill="#2C3584"/>
</svg>
