<svg width="89" height="79" viewBox="0 0 89 79" fill="none" xmlns="http://www.w3.org/2000/svg">
<path d="M87.8612 5.65671V31.2264C87.8612 33.7111 85.8465 35.7377 83.3762 35.7377H77.402C77.402 33.253 75.3872 31.2264 72.9169 31.2264H43.4138C39.5244 23.8251 31.8858 19.1905 23.5815 19.1905C21.0411 19.1905 18.5008 19.6311 16.1006 20.4769V5.65671C16.1006 3.17199 18.1153 1.14545 20.5856 1.14545H26.5598V8.6701C26.5598 11.1548 28.5746 13.1814 31.0449 13.1814H72.8994C75.3697 13.1814 77.3844 11.1548 77.3844 8.6701V1.14545H83.3587C85.8465 1.14545 87.8612 3.17199 87.8612 5.65671Z" fill="#F5F5F5"/>
<path d="M26.5598 13.1814H31.0449C28.5746 13.1814 26.5598 11.1548 26.5598 8.6701V1.14545H22.0748V8.6701C22.0748 11.1548 24.0896 13.1814 26.5598 13.1814Z" fill="#CFD8DC"/>
<path d="M83.3762 1.14545H78.8911C81.3614 1.14545 83.3762 3.17199 83.3762 5.65671V31.2264C83.3762 33.7111 81.3614 35.7377 78.8911 35.7377H83.3762C85.8465 35.7377 87.8612 33.7111 87.8612 31.2264V5.65671C87.8612 3.17199 85.8465 1.14545 83.3762 1.14545Z" fill="#CFD8DC"/>
<path d="M19.0789 19.1905C18.0803 19.1905 17.0817 19.2786 16.0831 19.402V20.4769C17.765 19.8778 19.5169 19.4901 21.3039 19.3138C20.5856 19.2434 19.8323 19.1905 19.0789 19.1905Z" fill="#CFD8DC"/>
<path d="M77.3845 1.14545V8.6701C77.3845 11.1548 75.3697 13.1814 72.8994 13.1814H31.0449C28.5746 13.1814 26.5598 11.1548 26.5598 8.6701V1.14545H77.3845Z" fill="#9CBCEC"/>
<path opacity="0.3" d="M72.8994 1.14545V8.6701C72.8994 11.1548 70.8846 13.1814 68.4144 13.1814H72.8994C75.3697 13.1814 77.3845 11.1548 77.3845 8.6701V1.14545H72.8994Z" fill="url(#paint0_linear)"/>
<path d="M78.2405 35.7377V38.7511C78.2405 39.5793 77.5412 40.249 76.6763 40.249H45.2077C45.0052 37.0946 44.1035 34.0284 42.5577 31.2264H73.5478C76.1426 31.2264 78.2405 33.253 78.2405 35.7377Z" fill="#9CBCEC"/>
<path opacity="0.3" d="M72.8994 31.2264H68.4144C70.8846 31.2264 72.8994 33.253 72.8994 35.7377V38.7511C72.8994 39.5793 72.2337 40.249 71.4102 40.249H75.8953C76.7187 40.249 77.3845 39.5793 77.3845 38.7511V35.7377C77.3845 33.253 75.3872 31.2264 72.8994 31.2264Z" fill="url(#paint1_linear)"/>
<path d="M45.9892 41.7468C45.9892 53.2188 37.4396 62.8581 26.1043 64.1622C14.7691 65.4662 4.27481 57.9944 1.71693 46.822C-0.840942 35.6495 5.34351 24.3185 16.1006 20.4945C18.5008 19.631 21.0236 19.1905 23.5815 19.2081C31.9034 19.2081 39.5419 23.8427 43.4138 31.244C44.8854 34.0459 45.7439 37.1122 45.9366 40.2665C45.9717 40.7423 45.9892 41.2358 45.9892 41.7468Z" fill="url(#paint2_linear)"/>
<path d="M33.7155 43.1079L29.9594 44.1208L25.8767 41.7527L29.9594 39.3846L33.7155 40.3975C33.8108 40.4249 33.9197 40.4386 34.0149 40.4386C34.6001 40.4386 35.09 40.0006 35.1717 39.4256C35.2533 38.8507 34.8859 38.2895 34.3143 38.1389L31.2251 37.3039L32.0552 34.1966C32.2185 33.5806 31.8511 32.9372 31.2387 32.7729C30.6263 32.6087 29.9866 32.9783 29.8233 33.5943L28.8162 37.3723L24.7335 39.7405V35.0042L27.4826 32.2391C27.918 31.7874 27.918 31.0482 27.4689 30.5964C27.0198 30.1447 26.2986 30.1447 25.8359 30.5828L23.5631 32.8688L21.304 30.5964C20.8549 30.1584 20.12 30.1584 19.6709 30.6101C19.2218 31.0619 19.2218 31.7874 19.6573 32.2528L22.4064 35.0179V39.7542L18.3236 37.386L17.3166 33.608C17.1533 32.992 16.5136 32.6224 15.9012 32.7866C15.2888 32.9509 14.9214 33.5943 15.0847 34.2103L15.9148 37.3176L12.8256 38.1526C12.2676 38.3032 11.9002 38.8507 11.9682 39.4393C12.0499 40.0279 12.5398 40.4523 13.125 40.4523C13.2202 40.4523 13.3291 40.4386 13.4244 40.4112L17.1805 39.3983L21.2632 41.7664L17.1805 44.1345L13.4244 43.1216C13.0161 42.9984 12.5806 43.1079 12.2812 43.409C11.9818 43.7102 11.8593 44.1482 11.9818 44.5589C12.0907 44.9695 12.4173 45.2844 12.8256 45.3802L15.9148 46.2152L15.0847 49.3225C15.003 49.6237 15.0439 49.9385 15.1936 50.2123C15.3433 50.4861 15.6018 50.6777 15.9012 50.7598C15.9965 50.7872 16.1054 50.8009 16.2006 50.8009C16.7314 50.8009 17.1805 50.445 17.3166 49.9385L18.3236 46.1468L22.4064 43.7786V48.5149L19.6573 51.28C19.3579 51.5675 19.2355 52.0055 19.3443 52.4162C19.4532 52.8268 19.7662 53.1417 20.1745 53.2512C20.5827 53.3607 21.0182 53.2375 21.304 52.9363L23.5631 50.664L25.8222 52.9363C26.108 53.2375 26.5435 53.3607 26.9518 53.2512C27.3601 53.1417 27.6731 52.8268 27.782 52.4162C27.8908 52.0055 27.7683 51.5675 27.4689 51.28L24.7199 48.5149V43.7786L28.8026 46.1468L29.8097 49.9248C29.9458 50.4313 30.4085 50.7872 30.9257 50.7872C31.0209 50.7872 31.1298 50.7735 31.2251 50.7462C31.8375 50.5819 32.2049 49.9385 32.0416 49.3225L31.2114 46.2152L34.3007 45.3802C34.709 45.2844 35.0356 44.9695 35.1445 44.5589C35.2533 44.1482 35.1445 43.7102 34.8451 43.409C34.5457 43.1079 34.1238 42.9984 33.7155 43.1079Z" fill="#F5F5F5"/>
<path d="M77.3845 20.706H81.8695C82.6929 20.706 83.3587 20.0363 83.3587 19.2081C83.3587 18.3798 82.6929 17.7102 81.8695 17.7102H77.3845C76.561 17.7102 75.8953 18.3798 75.8953 19.2081C75.8953 20.0187 76.561 20.706 77.3845 20.706Z" fill="black"/>
<path d="M81.8695 21.0584H77.3845C76.3683 21.0584 75.5449 20.2302 75.5449 19.2081C75.5449 18.186 76.3683 17.3578 77.3845 17.3578H81.8695C82.8856 17.3578 83.7091 18.186 83.7091 19.2081C83.7091 20.2302 82.8856 21.0584 81.8695 21.0584ZM77.3845 18.0451C76.7537 18.0451 76.2457 18.5561 76.2457 19.1905C76.2457 19.8249 76.7537 20.3359 77.3845 20.3359H81.8695C82.5002 20.3359 83.0083 19.8249 83.0083 19.1905C83.0083 18.5561 82.5002 18.0451 81.8695 18.0451H77.3845Z" fill="black"/>
<path d="M77.3845 26.7151H81.8695C82.6929 26.7151 83.3587 26.0455 83.3587 25.2172C83.3587 24.389 82.6929 23.7194 81.8695 23.7194H77.3845C76.561 23.7194 75.8953 24.389 75.8953 25.2172C75.8953 26.0455 76.561 26.7151 77.3845 26.7151Z" fill="black"/>
<path d="M81.8695 27.0676H77.3845C76.3683 27.0676 75.5449 26.2393 75.5449 25.2173C75.5449 24.1952 76.3683 23.3669 77.3845 23.3669H81.8695C82.8856 23.3669 83.7091 24.1952 83.7091 25.2173C83.7091 26.2393 82.8856 27.0676 81.8695 27.0676ZM77.3845 24.0542C76.7537 24.0542 76.2457 24.5652 76.2457 25.1996C76.2457 25.834 76.7537 26.3451 77.3845 26.3451H81.8695C82.5002 26.3451 83.0083 25.834 83.0083 25.1996C83.0083 24.5652 82.5002 24.0542 81.8695 24.0542H77.3845Z" fill="black"/>
<path d="M59.1254 46.6105C58.6371 46.6105 58.2438 47.0061 58.2438 47.4973V63.8005C58.2438 64.2917 58.6371 64.6873 59.1254 64.6873C59.6137 64.6873 60.007 64.2917 60.007 63.8005V47.5109C60.007 47.0198 59.6137 46.6105 59.1254 46.6105Z" fill="url(#paint3_linear)"/>
<path d="M44.8565 69.3532C45.7924 71.1404 47.8134 72.0409 49.7666 71.5634C51.7197 71.0722 53.0761 69.3259 53.0761 67.3068V47.511C53.0761 47.0198 52.6827 46.6242 52.1944 46.6242C51.7061 46.6242 51.3128 47.0198 51.3128 47.511V67.3068C51.3128 68.5074 50.499 69.5442 49.3461 69.8307C48.1932 70.1172 46.9996 69.5852 46.4435 68.521C45.8874 67.4569 46.118 66.1608 46.9996 65.3695C47.3658 65.0421 47.3929 64.4827 47.0674 64.1144C46.8911 63.9234 46.6469 63.8142 46.4028 63.8142C46.1858 63.8142 45.9823 63.8824 45.806 64.0461C44.3004 65.3831 43.9207 67.566 44.8565 69.3532Z" fill="url(#paint4_linear)"/>
<path d="M66.07 46.6105C65.5817 46.6105 65.1884 47.0061 65.1884 47.4973V67.2931C65.1884 69.3122 66.5447 71.0585 68.4979 71.5497C70.451 72.0408 72.4584 71.1267 73.3943 69.3395C74.3302 67.5523 73.9368 65.3694 72.4449 64.0188C72.0786 63.705 71.5225 63.7323 71.197 64.1007C70.8715 64.469 70.8986 65.0284 71.2648 65.3558C72.1465 66.1471 72.377 67.4432 71.8209 68.5073C71.2648 69.5714 70.0712 70.1035 68.9183 69.817C67.7654 69.5305 66.9516 68.4937 66.9516 67.2931V47.5109C66.9516 47.0198 66.5583 46.6105 66.07 46.6105Z" fill="url(#paint5_linear)"/>
<path d="M15.921 19.977L15.9228 19.9764C18.3803 19.0923 20.962 18.6416 23.5788 18.6597H23.5822C32.1041 18.6597 39.9276 23.4057 43.8936 30.9869L43.8939 30.9877C45.4013 33.8575 46.2803 36.9975 46.4776 40.2277L46.4781 40.2339C46.5138 40.7188 46.5317 41.2229 46.5317 41.7463C46.5317 53.4999 37.7729 63.3717 26.1652 64.7071C14.5585 66.0423 3.80896 58.3917 1.18849 46.9458C-1.43214 35.4993 4.90461 23.8932 15.921 19.977Z" stroke="black"/>
<path d="M87.3612 5.65671V31.2264C87.3612 33.4377 85.5676 35.2377 83.3762 35.2377H77.8773C77.6265 32.7124 75.498 30.7264 72.9169 30.7264H43.7136C39.6964 23.3179 31.9726 18.6905 23.5815 18.6905C21.2177 18.6905 18.855 19.0635 16.6006 19.7819V5.65671C16.6006 3.44538 18.3942 1.64545 20.5856 1.64545H26.0598V8.6701C26.0598 11.4282 28.2957 13.6814 31.0449 13.6814H72.8994C75.6486 13.6814 77.8844 11.4282 77.8844 8.6701V1.64545H83.3587C85.5688 1.64545 87.3612 3.44665 87.3612 5.65671Z" stroke="black"/>
<path d="M77.7405 35.2524V38.59C77.7405 39.2593 77.2378 39.749 76.6763 39.749H45.6754C45.4385 36.6228 44.6512 33.5798 43.3516 30.7559H73.5478C75.8367 30.7559 77.7405 32.7459 77.7405 35.2524Z" stroke="black"/>
<defs>
<linearGradient id="paint0_linear" x1="68.4138" y1="7.16451" x2="77.383" y2="7.16451" gradientUnits="userSpaceOnUse">
<stop stop-color="#184E9C"/>
<stop offset="0.8501" stop-color="#1F6BD8"/>
</linearGradient>
<linearGradient id="paint1_linear" x1="68.4138" y1="35.7385" x2="77.383" y2="35.7385" gradientUnits="userSpaceOnUse">
<stop stop-color="#184E9C"/>
<stop offset="0.8501" stop-color="#1F6BD8"/>
</linearGradient>
<linearGradient id="paint2_linear" x1="1.13885" y1="41.7628" x2="45.9819" y2="41.7628" gradientUnits="userSpaceOnUse">
<stop stop-color="#184E9C"/>
<stop offset="0.8501" stop-color="#1F6BD8"/>
</linearGradient>
<linearGradient id="paint3_linear" x1="58.2437" y1="55.6506" x2="60.0067" y2="55.6506" gradientUnits="userSpaceOnUse">
<stop stop-color="#184E9C"/>
<stop offset="0.8501" stop-color="#1F6BD8"/>
</linearGradient>
<linearGradient id="paint4_linear" x1="44.3478" y1="59.1595" x2="53.0746" y2="59.1595" gradientUnits="userSpaceOnUse">
<stop stop-color="#184E9C"/>
<stop offset="0.8501" stop-color="#1F6BD8"/>
</linearGradient>
<linearGradient id="paint5_linear" x1="65.1878" y1="59.1482" x2="73.8976" y2="59.1482" gradientUnits="userSpaceOnUse">
<stop stop-color="#184E9C"/>
<stop offset="0.8501" stop-color="#1F6BD8"/>
</linearGradient>
</defs>
</svg>
