<svg width="33" height="33" viewBox="0 0 33 33" fill="none" xmlns="http://www.w3.org/2000/svg">
<path d="M10.2028 0.719381C10.1256 0.352492 9.79089 0.0821533 9.41757 0.0821533C7.89208 0.0821533 6.45028 0.442605 5.13076 1.15064C3.89493 1.82005 2.80714 2.78554 1.98968 3.95058C1.1851 5.10273 0.644426 6.44799 0.44489 7.83187C0.226044 9.30586 0.380524 10.7799 0.901892 12.2024C2.54324 16.7144 5.21444 20.9047 8.62586 24.3161C12.0373 27.7275 16.2275 30.3987 20.7396 32.0401C21.7437 32.407 22.7736 32.5872 23.8099 32.5872C24.2411 32.5872 24.6788 32.555 25.1101 32.4906C26.494 32.2847 27.8328 31.7504 28.9914 30.9394C30.1564 30.122 31.1219 29.0406 31.7849 27.7983C32.4929 26.4788 32.8534 25.037 32.8534 23.5115C32.8534 23.1318 32.583 22.8035 32.2161 22.7263L24.6724 21.1107C24.4021 21.0527 24.1317 21.1364 23.9322 21.3295L21.055 24.2067L20.907 24.1359C18.3066 22.8292 15.9443 21.1171 13.8782 19.0509C11.812 16.9848 10.0999 14.6225 8.79321 12.0221L8.72241 11.8741L11.5996 8.9969C11.7927 8.8038 11.8764 8.52703 11.8184 8.25669L10.2028 0.719381ZM7.18405 11.1403C6.9459 11.3785 6.88153 11.7453 7.02314 12.0543C9.88101 18.1305 14.7986 23.0545 20.8812 25.9124C21.1902 26.054 21.5506 25.9896 21.7952 25.7515L24.769 22.7778L31.2249 24.1616L31.2056 24.3612C30.9674 26.5046 29.8539 28.3712 28.071 29.6199C26.7901 30.5146 25.3289 30.9716 23.8356 30.9716C22.986 30.9716 22.1235 30.8236 21.2867 30.521C12.4878 27.3285 5.60708 20.4477 2.40807 11.6488C1.5713 9.35092 1.89957 6.87925 3.3092 4.87102C4.5579 3.08807 6.42453 1.97453 8.56793 1.73637L8.76747 1.71706L10.1513 8.17301L7.18405 11.1403Z" fill="white"/>
<path d="M16.6007 0.0821533C16.1566 0.0821533 15.7961 0.442605 15.7961 0.886734C15.7961 1.33086 16.1566 1.69131 16.6007 1.69131C24.6722 1.69131 31.2441 8.26313 31.2441 16.3347C31.2441 16.7788 31.6045 17.1393 32.0486 17.1393C32.4928 17.1393 32.8532 16.7788 32.8532 16.3347C32.8532 11.9964 31.1604 7.91555 28.0901 4.84527C25.0263 1.77499 20.9454 0.0821533 16.6007 0.0821533Z" fill="white"/>
<path d="M16.6007 4.20166C16.1566 4.20166 15.7961 4.56211 15.7961 5.00624C15.7961 5.45037 16.1566 5.81082 16.6007 5.81082C22.4065 5.81082 27.1246 10.5289 27.1246 16.3347C27.1246 16.7789 27.4851 17.1393 27.9292 17.1393C28.3733 17.1393 28.7338 16.7789 28.7338 16.3347C28.7338 9.64706 23.2884 4.20166 16.6007 4.20166Z" fill="white"/>
<path d="M16.6007 8.32104C16.1566 8.32104 15.7961 8.6815 15.7961 9.12563C15.7961 9.56975 16.1566 9.93021 16.6007 9.93021C20.1344 9.93021 23.0052 12.8009 23.0052 16.3347C23.0052 16.7788 23.3656 17.1392 23.8097 17.1392C24.2539 17.1392 24.6143 16.7788 24.6143 16.3347C24.6143 11.9127 21.0227 8.32104 16.6007 8.32104Z" fill="white"/>
</svg>
