<svg width="793" height="289" viewBox="0 0 793 289" fill="none" xmlns="http://www.w3.org/2000/svg">
<mask id="mask0" mask-type="alpha" maskUnits="userSpaceOnUse" x="0" y="0" width="793" height="281">
<rect y="0.668213" width="793" height="280" rx="8" fill="#D9E0F4"/>
</mask>
<g mask="url(#mask0)">
<path opacity="0.3" d="M591.737 43.2304V42.6744L636.566 42.9491C665.377 45.1847 690.03 57.4306 710.279 78.8932C730.52 100.63 740.495 126.244 740.495 156.068V162.252V249.668C740.495 281.165 729.412 307.896 707.222 330.195C685.031 352.496 658.434 363.63 627.377 363.63C596.039 363.63 569.445 352.494 547.537 330.2C525.622 307.898 514.539 281.165 514.539 249.949V211.292L514.904 210.926L514.8 210.403C514.544 209.116 514.539 207.545 514.539 204.976C514.539 193.99 518.357 184.397 525.735 176.43C533.396 168.458 542.382 164.087 553.282 163.533H555.494H559.97H593.813H660.941H661.941V162.533V157.474C661.941 153.792 661.663 150.577 660.776 147.896C656.773 134.69 648.993 126.541 636.883 123.064L636.748 123.025H636.607H591.296H591.294H591.293H591.291H591.29H591.288H591.286H591.285H591.283H591.281H591.28H591.278H591.276H591.275H591.273H591.271H591.27H591.268H591.267H591.265H591.263H591.262H591.26H591.258H591.257H591.255H591.253H591.252H591.25H591.249H591.247H591.245H591.244H591.242H591.24H591.239H591.237H591.235H591.234H591.232H591.231H591.229H591.227H591.226H591.224H591.222H591.221H591.219H591.217H591.216H591.214H591.212H591.211H591.209H591.208H591.206H591.204H591.203H591.201H591.199H591.198H591.196H591.194H591.193H591.191H591.19H591.188H591.186H591.185H591.183H591.181H591.18H591.178H591.176H591.175H591.173H591.172H591.17H591.168H591.167H591.165H591.163H591.162H591.16H591.158H591.157H591.155H591.153H591.152H591.15H591.149H591.147H591.145H591.144H591.142H591.14H591.139H591.137H591.135H591.134H591.132H591.131H591.129H591.127H591.126H591.124H591.122H591.121H591.119H591.117H591.116H591.114H591.113H591.111H591.109H591.108H591.106H591.104H591.103H591.101H591.099H591.098H591.096H591.094H591.093H591.091H591.09H591.088H591.086H591.085H591.083H591.081H591.08H591.078H591.076H591.075H591.073H591.072H591.07H591.068H591.067H591.065H591.063H591.062H591.06H591.058H591.057H591.055H591.054H591.052H591.05H591.049H591.047H591.045H591.044H591.042H591.04H591.039H591.037H591.035H591.034H591.032H591.031H591.029H591.027H591.026H591.024H591.022H591.021H591.019H591.017H591.016H591.014H591.013H591.011H591.009H591.008H591.006H591.004H591.003H591.001H590.999H590.998H590.996H590.995H590.993H590.991H590.99H590.988H590.986H590.985H590.983H590.981H590.98H590.978H590.976H590.975H590.973H590.972H590.97H590.968H590.967H590.965H590.963H590.962H590.96H590.958H590.957H590.955H590.954H590.952H590.95H590.949H590.947H590.945H590.944H590.942H590.94H590.939H590.937H590.936H590.934H590.932H590.931H590.929H590.927H590.926H590.924H590.922H590.921H590.919H590.917H590.916H590.914H590.913H590.911H590.909H590.908H590.906H590.904H590.903H590.901H590.899H590.898H590.896H590.895H590.893H590.891H590.89H590.888H590.886H590.885H590.883H590.881H590.88H590.878H590.877H590.875H590.873H590.872H590.87H590.868H590.867H590.865H590.863H590.862H590.86H590.858H590.857H590.855H590.854H590.852H590.85H590.849H590.847H590.845H590.844H590.842H590.84H590.839H590.837H590.836H590.834H590.832H590.831H590.829H590.827H590.826H590.824H590.822H590.821H590.819H590.818H590.816H590.814H590.813H590.811H590.809H590.808H590.806H590.804H590.803H590.801H590.799H590.798H590.796H590.795H590.793H590.791H590.79H590.788H590.786H590.785H590.783H590.781H590.78H590.778H590.777H590.775H590.773H590.772H590.77H590.768H590.767H590.765H590.763H590.762H590.76H590.759H590.757H590.755H590.754H590.752H590.75H590.749H590.747H590.745H590.744H590.742H590.74H590.739H590.737H590.736H590.734H590.732H590.731H590.729H590.727H590.726H590.724H590.722H590.721H590.719H590.718H590.716H590.714H590.713H590.711H590.709H590.708H590.706H590.704H590.703H590.701H590.7H590.698H590.696H590.695H590.693H590.691H590.69H590.688H590.686H590.685H590.683H590.681H590.68H590.678H590.677H590.675H590.673H590.672H590.67H590.668H590.667H590.665H590.663H590.662H590.66H590.659H590.657H590.655H590.654H590.652H590.65H590.649H590.647H590.645H590.644H590.642H590.641H590.639H590.637H590.636H590.634H590.632H590.631H590.629H590.627H590.626H590.624H590.622H590.621H590.619H590.618H590.616H590.614H590.613H590.611H590.609H590.608H590.606H590.604H590.603H590.601H590.6H590.598H590.596H590.595H590.593H590.591H590.59H590.588H590.586H590.585H590.583H590.582H590.58H590.578H590.577H590.575H590.573H590.572H590.57H590.568H590.567H590.565H590.563H590.562H590.56H590.559H590.557H590.555H590.554H590.552H590.55H590.549H590.547H590.545H590.544H590.542H590.541H590.539H590.537H590.536H590.534H590.532H590.531H590.529H590.527H590.526H590.524H590.523H590.521H590.519H590.518H590.516H590.514H590.513H590.511H590.509H590.508H590.506H590.504H590.503H590.501H590.5H590.498H590.496H590.495H590.493H590.491H590.49H590.488H590.486H590.485H590.483H590.482H590.48H590.478H590.477H590.475H590.473H590.472H590.47H590.468H590.467H590.465H590.464H590.462H590.46H590.459H590.457H590.455H590.454H590.452H590.45H590.448H590.446H590.444H590.442H590.44H590.438H590.435H590.433H590.431H590.428H590.426H590.423H590.421H590.418H590.415H590.413H590.41H590.407H590.404H590.401H590.398H590.395H590.392H590.388H590.385H590.382H590.378H590.375H590.371H590.368H590.364H590.361H590.357H590.353H590.349H590.345H590.341H590.337H590.333H590.329H590.325H590.32H590.316H590.312H590.307H590.303H590.298H590.294H590.289H590.284H590.279H590.274H590.27H590.265H590.26H590.254H590.249H590.244H590.239H590.234H590.228H590.223H590.217H590.212H590.206H590.2H590.195H590.189H590.183H590.177H590.171H590.165H590.159H590.153H590.147H590.14H590.134H590.128H590.121H590.115H590.108H590.102H590.095H590.088H590.081H590.075H590.068H590.061H590.054H590.047H590.039H590.032H590.025H590.018H590.01H590.003H589.995H589.988H589.98H589.973H589.965H589.957H589.949H589.941H589.933H589.925H589.917H589.909H589.901H589.893H589.884H589.876H589.868H589.859H589.85H589.842H589.833H589.824H589.816H589.807H589.798H589.789H589.78H589.771H589.762H589.752H589.743H589.734H589.725H589.715H589.706H589.696H589.686H589.677H589.667H589.657H589.647H589.637H589.627H589.617H589.607H589.597H589.587H589.577H589.566H589.556H589.545H589.535H589.524H589.514H589.503H589.492H589.481H589.471H589.46H589.449H589.438H589.427H589.415H589.404H589.393H589.382H589.37H589.359H589.347H589.336H589.324H589.312H589.3H589.289H589.277H589.265H589.253H589.241H589.229H589.216H589.204H589.192H589.18H589.167H589.155H589.142H589.129H589.117H589.104H589.091H589.078H589.066H589.053H589.04H589.026H589.013H589H588.987H588.974H588.96H588.947H588.933H588.92H588.906H588.892H588.879H588.865H588.851H588.837H588.823H588.809H588.795H588.781H588.767H588.752H588.738H588.723H588.709H588.694H588.68H588.665H588.651H588.636H588.621H588.606H588.591H588.576H588.561H588.546H588.531H588.515H588.5H588.485H588.469H588.454H588.438H588.423H588.407H588.391H588.375H588.36H588.344H588.328H588.312H588.296H588.279H588.263H588.247H588.231H588.214H588.198H588.181H588.165H588.148H588.131H588.114H588.098H588.081H588.064H588.047H588.03H588.013H587.995H587.978H587.961H587.943H587.926H587.909H587.891H587.873H587.856H587.838H587.82H587.802H587.784H587.766H587.748H587.73H587.712H587.694H587.675H587.657H587.639H587.62H587.602H587.583H587.564H587.546H587.527H587.508H587.489H587.47H587.451H587.432H587.413H587.394H587.374H587.355H587.336H587.316H587.297H587.277H587.258H587.238H587.218H587.198H587.178H587.158H587.138H587.118H587.098H587.078H587.058H587.037H587.017H586.997H586.976H586.956H586.935H586.914H586.894H586.873H586.852H586.831H586.81H586.789H586.768H586.747H586.725H586.704H586.683H586.661H586.64H586.618H586.597H586.575H586.553H586.531H586.51H586.488H586.466H586.444H586.421H586.399H586.377H586.355H586.332H586.31H586.288H586.265H586.242H586.22H586.197H586.174H586.151H586.128H586.105H586.082H586.059H586.036H586.013H585.99H585.966H585.943H585.919H585.896H585.872H585.849H585.825H585.801H585.777H585.753H585.729H585.705H585.681H585.657H585.633H585.609H585.584H585.56H585.535H585.511H585.486H585.462H585.437H585.412H585.387H585.362H585.337H585.312H585.287H585.262H585.237H585.212H585.186H585.161H585.135H585.11H585.084H585.059H585.033H585.007H584.981H584.955H584.93H584.903H584.877H584.851H584.825H584.799H584.772H584.746H584.72H584.693H584.666H584.64H584.613H584.586H584.559H584.532H584.506H584.478H584.451H584.424H584.397H584.37H584.342H584.315H584.287H584.26H584.232H584.205H584.177H584.149H584.121H584.093H584.065H584.037H584.009H583.981H583.953H583.925H583.896H583.868H583.839H583.811H583.782H583.753H583.725H583.696H583.667H583.638H583.609H583.58H583.551H583.522H583.493H583.463H583.434H583.404H583.375H583.345H583.316H583.286H583.256H583.226H583.197H583.167H583.137H583.107H583.076H583.046H583.016H582.986H582.955H582.925H582.894H582.864H582.833H582.802H582.772H582.741H582.71H582.679H582.648H582.617H582.586H582.555H582.523H582.492H582.46H582.429H582.397H582.366H582.334H582.303H582.271H582.239H582.207H582.175H582.143H582.111H582.079H582.046H582.014H581.982H581.949H581.917H581.884H581.852H581.819H581.786C576.614 123.025 569.87 119.346 562.077 111.514L562.071 111.508L562.065 111.502C554.158 103.83 550.341 94.2561 550.341 83.2682C550.341 72.2909 554.151 62.9873 562.077 55.0222L562.083 55.016L562.089 55.0097C569.723 47.0642 579.248 43.2304 590.177 43.2304H590.179H590.181H590.182H590.184H590.185H590.187H590.189H590.19H590.192H590.193H590.195H590.196H590.198H590.2H590.201H590.203H590.204H590.206H590.207H590.209H590.21H590.212H590.213H590.215H590.216H590.218H590.219H590.221H590.222H590.224H590.225H590.227H590.228H590.229H590.231H590.232H590.234H590.235H590.237H590.238H590.239H590.241H590.242H590.244H590.245H590.246H590.248H590.249H590.25H590.252H590.253H590.254H590.256H590.257H590.258H590.26H590.261H590.262H590.264H590.265H590.266H590.268H590.269H590.27H590.271H590.273H590.274H590.275H590.276H590.278H590.279H590.28H590.281H590.283H590.284H590.285H590.286H590.288H590.289H590.29H590.291H590.292H590.294H590.295H590.296H590.297H590.298H590.3H590.301H590.302H590.303H590.304H590.305H590.306H590.308H590.309H590.31H590.311H590.312H590.313H590.314H590.316H590.317H590.318H590.319H590.32H590.321H590.322H590.323H590.324H590.325H590.327H590.328H590.329H590.33H590.331H590.332H590.333H590.334H590.335H590.336H590.337H590.338H590.339H590.34H590.341H590.342H590.343H590.344H590.345H590.346H590.347H590.348H590.349H590.35H590.351H590.352H590.353H590.354H590.355H590.356H590.357H590.358H590.359H590.36H590.361H590.362H590.363H590.364H590.365H590.366H590.367H590.368H590.369H590.37H590.371H590.372H590.373H590.374H590.375H590.376H590.376H590.377H590.378H590.379H590.38H590.381H590.382H590.383H590.384H590.385H590.386H590.387H590.387H590.388H590.389H590.39H590.391H590.392H590.393H590.394H590.395H590.396H590.396H590.397H590.398H590.399H590.4H590.401H590.402H590.403H590.403H590.404H590.405H590.406H590.407H590.408H590.409H590.409H590.41H590.411H590.412H590.413H590.414H590.415H590.415H590.416H590.417H590.418H590.419H590.42H590.421H590.421H590.422H590.423H590.424H590.425H590.426H590.426H590.427H590.428H590.429H590.43H590.431H590.431H590.432H590.433H590.434H590.435H590.436H590.436H590.437H590.438H590.439H590.44H590.441H590.441H590.442H590.443H590.444H590.445H590.445H590.446H590.447H590.448H590.449H590.45H590.45H590.451H590.452H590.453H590.454H590.455H590.455H590.456H590.457H590.458H590.459H590.459H590.46H590.461H590.462H590.463H590.464H590.464H590.465H590.466H590.467H590.468H590.468H590.469H590.47H590.471H590.472H590.473H590.473H590.474H590.475H590.476H590.477H590.478H590.478H590.479H590.48H590.481H590.482H590.482H590.483H590.484H590.485H590.486H590.487H590.487H590.488H590.489H590.49H590.491H590.492H590.493H590.493H590.494H590.495H590.496H590.497H590.498H590.498H590.499H590.5H590.501H590.502H590.503H590.504H590.504H590.505H590.506H590.507H590.508H590.509H590.51H590.51H590.511H590.512H590.513H590.514H590.515H590.516H590.517H590.518H590.518H590.519H590.52H590.521H590.522H590.523H590.524H590.525H590.526H590.526H590.527H590.528H590.529H590.53H590.531H590.532H590.533H590.534H590.535H590.536H590.537H590.537H590.538H590.539H590.54H590.541H590.542H590.543H590.544H590.545H590.546H590.547H590.548H590.549H590.55H590.551H590.552H590.553H590.554H590.555H590.556H590.557H590.558H590.559H590.56H590.561H590.562H590.562H590.563H590.564H590.566H590.567H590.568H590.569H590.57H590.571H590.572H590.573H590.574H590.575H590.576H590.577H590.578H590.579H590.58H590.581H590.582H590.583H590.584H590.585H590.586H590.587H590.588H590.59H590.591H590.592H590.593H590.594H590.595H590.596H590.597H590.598H590.599H590.601H590.602H590.603H590.604H590.605H590.606H590.607H590.609H590.61H590.611H590.612H590.613H590.614H590.616H590.617H590.618H590.619H590.62H590.621H590.623H590.624H590.625H590.626H590.628H590.629H590.63H590.631H590.632H590.634H590.635H590.636H590.637H590.639H590.64H590.641H590.643H590.644H590.645H590.646H590.648H590.649H590.65H590.652H590.653H590.654H590.656H590.657H590.658H590.66H590.661H590.662H590.664H590.665H590.666H590.668H590.669H590.67H590.672H590.673H590.675H590.676H590.677H590.679H590.68H590.682H590.683H590.684H590.686H590.687H590.689H590.69H590.692H590.693H590.695H590.696H590.698H590.699H590.701H590.702H590.704H590.705H590.707H590.708H590.71H590.711H590.713H590.714H590.716H590.717H590.719H590.721H590.722H590.724H590.725H590.727H590.729H590.73H590.732H590.733H590.735H590.737H591.737ZM594.093 242.484H593.093V243.484V251.355V251.388L593.095 251.422C593.805 261.983 597.012 270.121 602.805 275.687C608.598 281.252 616.84 284.112 627.35 284.398L627.377 284.398L627.405 284.398C637.916 284.112 646.156 281.251 651.982 275.689C657.808 270.127 661.086 261.993 661.938 251.435L661.941 251.395V251.355V243.484V242.484H660.941H594.093Z" stroke="white" stroke-width="2"/>
</g>
<path d="M741.502 198.828L741.544 199.169L741.877 199.252L746.421 200.388C747.585 200.679 748.401 201.725 748.401 202.925C748.401 204.124 747.585 205.17 746.421 205.461L741.878 206.597L741.545 206.68L741.503 207.021C741.304 208.629 740.99 210.201 740.57 211.729L740.479 212.059L740.754 212.263L744.514 215.049C745.478 215.763 745.832 217.042 745.373 218.15C744.914 219.258 743.759 219.912 742.572 219.736L737.943 219.047L737.604 218.996L737.434 219.294C736.64 220.689 735.747 222.022 734.765 223.281L734.554 223.552L734.731 223.846L737.141 227.864L737.57 227.606L737.141 227.864C737.759 228.892 737.597 230.209 736.748 231.058C735.9 231.906 734.583 232.068 733.554 231.451L733.297 231.88L733.554 231.451L729.536 229.04L729.242 228.864L728.972 229.075C727.712 230.057 726.38 230.95 724.984 231.744L724.686 231.913L724.737 232.252L725.426 236.882C725.602 238.069 724.949 239.223 723.84 239.682C722.732 240.141 721.453 239.787 720.739 238.823L717.953 235.064L717.749 234.789L717.419 234.88C715.891 235.3 714.319 235.614 712.711 235.812L712.37 235.854L712.287 236.187L711.151 240.731C710.86 241.895 709.814 242.711 708.615 242.711C707.415 242.711 706.369 241.895 706.078 240.731L705.593 240.852L706.078 240.731L704.943 236.187L704.859 235.854L704.519 235.812C702.911 235.614 701.339 235.3 699.81 234.88L699.48 234.789L699.276 235.064L696.491 238.824C695.776 239.788 694.498 240.142 693.389 239.683C692.281 239.223 691.627 238.069 691.804 236.882L692.493 232.252L692.543 231.914L692.245 231.744C690.85 230.95 689.518 230.057 688.258 229.075L687.987 228.864L687.693 229.04L683.676 231.451L683.933 231.88L683.676 231.451C682.647 232.068 681.33 231.906 680.482 231.058C679.633 230.209 679.471 228.892 680.088 227.864L679.66 227.607L680.088 227.864L682.499 223.846L682.675 223.552L682.465 223.281C681.482 222.022 680.59 220.69 679.795 219.294L679.626 218.996L679.287 219.047L674.657 219.736C673.47 219.912 672.316 219.259 671.857 218.15L671.395 218.341L671.857 218.15C671.398 217.042 671.752 215.763 672.716 215.049L676.475 212.263L676.75 212.059L676.66 211.729C676.239 210.201 675.925 208.629 675.727 207.021L675.685 206.68L675.352 206.597L670.808 205.461C669.645 205.17 668.828 204.124 668.828 202.925C668.828 201.725 669.645 200.679 670.808 200.388L675.352 199.252L675.685 199.169L675.727 198.828C675.925 197.22 676.239 195.648 676.659 194.12L676.75 193.79L676.475 193.586L672.716 190.8L672.418 191.202L672.716 190.8C671.752 190.086 671.397 188.807 671.857 187.699C672.316 186.59 673.47 185.937 674.657 186.113L674.657 186.113L679.287 186.802L679.626 186.853L679.795 186.555C680.59 185.159 681.482 183.827 682.464 182.567L682.675 182.297L682.499 182.003L680.088 177.985L680.088 177.985C679.471 176.956 679.633 175.639 680.481 174.791C681.33 173.943 682.647 173.781 683.675 174.398L683.675 174.398L687.693 176.808L687.987 176.985L688.258 176.774C689.517 175.792 690.85 174.899 692.245 174.105L692.543 173.935L692.492 173.597L691.803 168.967C691.803 168.967 691.803 168.967 691.803 168.967C691.627 167.78 692.281 166.626 693.389 166.166C694.497 165.707 695.776 166.062 696.49 167.025L696.892 166.728L696.49 167.025L699.276 170.785L699.48 171.06L699.81 170.969C701.338 170.549 702.91 170.235 704.518 170.037L704.859 169.995L704.942 169.662L706.078 165.118C706.369 163.954 707.415 163.138 708.615 163.138C709.814 163.138 710.86 163.954 711.151 165.118L712.287 169.662L712.37 169.995L712.711 170.037C714.319 170.235 715.891 170.549 717.419 170.969L717.749 171.06L717.953 170.785L720.739 167.025C721.453 166.061 722.732 165.707 723.84 166.166C724.949 166.626 725.602 167.78 725.426 168.967L724.737 173.597L724.686 173.935L724.984 174.105C726.38 174.899 727.712 175.792 728.972 176.774L729.242 176.985L729.536 176.808L733.554 174.398L733.297 173.969L733.554 174.398C734.583 173.781 735.9 173.943 736.748 174.791C737.596 175.64 737.758 176.956 737.141 177.985L737.57 178.242L737.141 177.985L734.731 182.003L734.554 182.297L734.765 182.567C735.747 183.827 736.64 185.159 737.434 186.555L737.604 186.853L737.942 186.802L742.572 186.113C743.759 185.937 744.913 186.59 745.373 187.699L745.835 187.508L745.373 187.699C745.832 188.807 745.478 190.086 744.514 190.8L740.754 193.586L740.479 193.79L740.57 194.12C740.99 195.648 741.304 197.22 741.502 198.828ZM684.202 202.925C684.202 216.407 695.132 227.337 708.615 227.337C722.097 227.337 733.027 216.407 733.027 202.925C733.027 189.442 722.097 178.512 708.615 178.512C695.132 178.512 684.202 189.442 684.202 202.925Z" fill="url(#paint0_linear)" stroke="black"/>
<path d="M711.865 174.33C726.227 175.945 737.391 188.131 737.391 202.924C737.391 217.718 726.227 229.904 711.865 231.519C711.865 231.519 730.177 217.536 730.177 202.924C730.177 188.313 711.865 174.33 711.865 174.33Z" fill="#76A0DF"/>
<path d="M711.865 174.33C723.58 176.238 732.608 188.313 732.608 202.925C732.608 217.536 723.58 229.611 711.865 231.519C710.798 231.639 709.714 231.701 708.615 231.701C692.722 231.701 679.839 218.817 679.839 202.925C679.839 187.032 692.722 174.148 708.615 174.148C709.714 174.148 710.798 174.21 711.865 174.33ZM724.509 200.493C726.13 200.493 727.315 198.932 726.845 197.38C725.003 191.318 720.221 186.536 714.159 184.694C712.608 184.224 711.046 185.409 711.046 187.03V193.504C714.464 194.384 717.155 197.075 718.035 200.493H724.509ZM726.845 208.469C727.315 206.918 726.13 205.356 724.509 205.356H718.035C717.155 208.774 714.464 211.465 711.046 212.345V218.819C711.046 220.44 712.608 221.625 714.159 221.155C720.221 219.313 725.003 214.531 726.845 208.469ZM713.478 202.925C713.478 200.238 711.301 198.061 708.615 198.061C705.928 198.061 703.751 200.238 703.751 202.925C703.751 205.611 705.928 207.788 708.615 207.788C711.301 207.788 713.478 205.611 713.478 202.925ZM706.183 218.819V212.345C702.765 211.465 700.074 208.774 699.194 205.356H692.721C691.099 205.356 689.914 206.918 690.384 208.469C692.226 214.531 697.009 219.313 703.07 221.155C704.622 221.625 706.183 220.44 706.183 218.819ZM706.183 193.504V187.03C706.183 185.409 704.622 184.224 703.07 184.694C697.009 186.536 692.226 191.318 690.384 197.38C689.914 198.932 691.099 200.493 692.721 200.493H699.194C700.074 197.075 702.765 194.384 706.183 193.504Z" fill="#ACD2F6"/>
<path d="M726.366 197.525C724.573 191.623 719.916 186.966 714.014 185.173L726.366 197.525ZM726.366 197.525C726.737 198.748 725.803 199.993 724.509 199.993M726.366 197.525L724.509 199.993M724.509 199.993H718.415C717.432 196.702 714.837 194.108 711.546 193.124V187.03C711.546 185.737 712.791 184.803 714.014 185.173L724.509 199.993ZM724.509 205.856C725.803 205.856 726.737 207.102 726.366 208.324C724.573 214.226 719.916 218.883 714.014 220.676C712.792 221.047 711.546 220.113 711.546 218.819V212.725C714.837 211.742 717.432 209.147 718.415 205.856H724.509ZM708.615 198.561C711.025 198.561 712.978 200.514 712.978 202.925C712.978 205.335 711.025 207.288 708.615 207.288C706.205 207.288 704.251 205.335 704.251 202.925C704.251 200.514 706.205 198.561 708.615 198.561ZM698.814 205.856C699.798 209.147 702.392 211.742 705.683 212.725V218.819C705.683 220.113 704.438 221.047 703.215 220.676C697.313 218.883 692.656 214.226 690.863 208.324C690.492 207.102 691.427 205.856 692.72 205.856H698.814ZM705.683 187.03V193.124C702.392 194.108 699.798 196.702 698.814 199.993H692.72C691.427 199.993 690.492 198.748 690.863 197.525C692.656 191.623 697.313 186.966 703.215 185.173C704.438 184.802 705.683 185.737 705.683 187.03Z" fill="white" stroke="black"/>
<circle cx="708.615" cy="202.925" r="28.2762" stroke="black"/>
<defs>
<linearGradient id="paint0_linear" x1="668.323" y1="202.932" x2="748.888" y2="202.932" gradientUnits="userSpaceOnUse">
<stop stop-color="#184E9C"/>
<stop offset="0.8501" stop-color="#1F6BD8"/>
</linearGradient>
</defs>
</svg>
