<svg width="793" height="281" viewBox="0 0 793 281" fill="none" xmlns="http://www.w3.org/2000/svg">
<mask id="mask0" mask-type="alpha" maskUnits="userSpaceOnUse" x="0" y="0" width="793" height="281">
<rect x="1" y="1.66833" width="791" height="278" rx="7" fill="white" stroke="#D9E0F4" stroke-width="2"/>
</mask>
<g mask="url(#mask0)">
<g opacity="0.4">
<path opacity="0.2" d="M712.088 136.157L712.098 136.19L712.11 136.222C713.912 141.051 714.81 145.869 714.81 150.99C714.81 163.674 710.317 174.221 701.286 183.295L701.28 183.301L701.275 183.307C692.561 192.366 681.77 196.884 669.454 196.884C658.255 196.884 649.115 194.224 641.957 188.942C634.8 183.66 629.532 175.686 626.202 164.887L625.985 164.181H625.561C622.299 157.686 617.975 152.781 612.608 149.482C607.088 146.09 600.529 144.437 593.012 144.437C582.923 144.437 574.379 147.936 567.129 155.221C559.88 162.506 556.4 171.09 556.4 181.224V264.831C556.4 275.269 559.877 283.854 567.129 291.142C574.379 298.427 582.923 301.926 593.012 301.926C600.537 301.926 607.101 300.191 612.621 296.68C618.14 293.168 622.553 287.92 625.843 280.994L625.873 280.93L625.894 280.863C629.222 270.22 634.489 262.322 641.684 257.077C648.88 251.832 658.099 249.171 669.454 249.171C681.76 249.171 692.254 253.682 701.286 262.759C710.319 271.837 714.81 282.384 714.81 294.756C714.81 300.189 713.911 305.007 712.11 309.832L712.098 309.864L712.088 309.898C704.475 335.603 689.558 357.025 667.919 373.871C645.989 390.704 621.337 399.267 593.319 399.267C558.896 399.267 529.682 387.034 505.617 362.545C481.547 338.049 469.372 308.683 469.372 274.086V171.66C469.372 137.374 481.545 108.008 505.615 83.512C529.989 59.0186 559.206 46.7876 593.319 46.7876C621.336 46.7876 645.988 55.3496 667.918 72.1825C689.564 89.3417 704.478 110.458 712.088 136.157Z" stroke="url(#paint0_linear)" stroke-width="2"/>
</g>
</g>
<g clip-path="url(#clip0)">
<path d="M732.935 236.677C731.087 236.677 691.694 236.677 690.064 236.677C689.338 236.677 688.69 236.424 688.185 236.011L688.779 237.94C689.673 240.373 691.989 241.99 694.581 241.99H728.418C731.01 241.99 733.326 240.373 734.22 237.94L734.814 236.011C734.309 236.424 733.661 236.677 732.935 236.677Z" fill="#B1DBFC"/>
<path d="M698.519 237.941L698.13 236.677C693.683 236.677 690.503 236.677 690.064 236.677C689.338 236.677 688.69 236.424 688.185 236.011L688.779 237.941C689.673 240.373 691.989 241.99 694.581 241.99H704.32C701.729 241.99 699.413 240.373 698.519 237.941Z" fill="#8BCAFF"/>
<path d="M720.747 214.671L718.536 207.41C716.325 208.147 713.959 208.546 711.5 208.546C709.04 208.546 706.675 208.147 704.463 207.41L702.253 214.671H720.747Z" fill="#B1DBFC"/>
<path d="M711.912 208.542C711.775 208.545 711.638 208.546 711.5 208.546C709.041 208.546 706.675 208.147 704.463 207.41L702.253 214.671H711.007L711.912 208.542Z" fill="#8BCAFF"/>
<path d="M735.733 232.981L730.109 217.675C729.377 215.683 727.48 214.359 725.357 214.359H697.642C695.52 214.359 693.623 215.683 692.891 217.675L687.267 232.981C686.552 234.927 687.992 236.99 690.064 236.99H701.457L702.671 233.685C703.019 232.74 703.919 232.112 704.926 232.112H718.074C719.081 232.112 719.981 232.74 720.329 233.685L721.543 236.99H732.936C735.008 236.99 736.448 234.927 735.733 232.981Z" fill="#DFEBFA"/>
<path d="M695.67 232.981L701.294 217.675C702.026 215.683 703.923 214.359 706.045 214.359H697.642C695.52 214.359 693.623 215.683 692.891 217.675L687.267 232.981C686.552 234.927 687.992 236.99 690.064 236.99H698.467C696.395 236.99 694.955 234.927 695.67 232.981Z" fill="#B1DBFC"/>
<path d="M721.657 236.99L720.328 233.373C719.981 232.427 719.081 231.799 718.074 231.799H704.926C703.919 231.799 703.019 232.427 702.671 233.373L701.342 236.99H721.657Z" fill="url(#paint1_linear)"/>
<path d="M713.472 232.235H719.525C720.363 232.235 721.112 232.757 721.401 233.544L722.507 236.555H716.454L715.348 233.544C715.059 232.757 714.31 232.235 713.472 232.235Z" fill="#2C3584"/>
<path d="M711.5 208.859C723.795 208.859 733.762 198.892 733.762 186.596C733.762 174.301 723.795 164.334 711.5 164.334C699.205 164.334 689.237 174.301 689.237 186.596C689.237 198.892 699.205 208.859 711.5 208.859Z" fill="#DFEBFA"/>
<path d="M695.748 186.596C695.748 175.407 704.003 166.147 714.755 164.571C713.692 164.415 712.606 164.333 711.5 164.333C699.204 164.333 689.237 174.301 689.237 186.596C689.237 198.892 699.205 208.859 711.5 208.859C712.606 208.859 713.692 208.777 714.755 208.621C704.003 207.046 695.748 197.786 695.748 186.596Z" fill="#B1DBFC"/>
<path d="M711.5 202.612C720.345 202.612 727.516 195.442 727.516 186.596C727.516 177.751 720.345 170.581 711.5 170.581C702.655 170.581 695.484 177.751 695.484 186.596C695.484 195.442 702.655 202.612 711.5 202.612Z" fill="#9EA1BA"/>
<path opacity="0.2" d="M720.693 186.596C720.693 194.27 715.295 200.683 708.088 202.246C709.188 202.485 710.329 202.612 711.5 202.612C720.345 202.612 727.516 195.441 727.516 186.596C727.516 177.751 720.345 170.581 711.5 170.581C710.329 170.581 709.188 170.707 708.088 170.946C715.294 172.509 720.693 178.922 720.693 186.596Z" fill="#2C3584"/>
<path d="M711.5 195.979C716.682 195.979 720.883 191.778 720.883 186.596C720.883 181.414 716.682 177.213 711.5 177.213C706.318 177.213 702.117 181.414 702.117 186.596C702.117 191.778 706.318 195.979 711.5 195.979Z" fill="#8BCAFF"/>
<path d="M708.002 186.596C708.002 182.442 710.702 178.921 714.442 177.686C713.517 177.381 712.528 177.213 711.5 177.213C706.318 177.213 702.117 181.414 702.117 186.596C702.117 191.778 706.318 195.979 711.5 195.979C712.528 195.979 713.517 195.812 714.442 195.506C710.702 194.271 708.002 190.75 708.002 186.596Z" fill="#5CB3F8"/>
<path d="M711.5 190.282C713.536 190.282 715.186 188.632 715.186 186.596C715.186 184.56 713.536 182.91 711.5 182.91C709.464 182.91 707.814 184.56 707.814 186.596C707.814 188.632 709.464 190.282 711.5 190.282Z" fill="#5CB3F8"/>
<path d="M711.5 186.596C711.5 185.232 712.241 184.042 713.343 183.405C712.801 183.091 712.172 182.91 711.5 182.91C709.464 182.91 707.814 184.56 707.814 186.596C707.814 188.632 709.464 190.282 711.5 190.282C712.171 190.282 712.801 190.102 713.343 189.788C712.241 189.151 711.5 187.96 711.5 186.596Z" fill="#2FA2F6"/>
<path fill-rule="evenodd" clip-rule="evenodd" d="M701.493 186.594C701.493 181.076 705.982 176.587 711.5 176.587C717.017 176.587 721.507 181.076 721.507 186.594C721.507 192.111 717.017 196.601 711.5 196.601C705.982 196.601 701.493 192.111 701.493 186.594ZM711.5 177.834C706.669 177.834 702.74 181.763 702.74 186.594C702.74 191.424 706.669 195.353 711.5 195.353C716.33 195.353 720.259 191.424 720.259 186.594C720.259 181.763 716.33 177.834 711.5 177.834Z" fill="black"/>
<path fill-rule="evenodd" clip-rule="evenodd" d="M707.19 186.594C707.19 184.218 709.124 182.284 711.5 182.284C713.876 182.284 715.81 184.218 715.81 186.594C715.81 188.97 713.876 190.904 711.5 190.904C709.124 190.904 707.19 188.97 707.19 186.594ZM711.5 183.532C709.811 183.532 708.438 184.905 708.438 186.594C708.438 188.283 709.811 189.656 711.5 189.656C713.189 189.656 714.562 188.283 714.562 186.594C714.562 184.905 713.189 183.532 711.5 183.532Z" fill="black"/>
<path fill-rule="evenodd" clip-rule="evenodd" d="M727.444 185.02C727.444 185.02 727.444 185.02 727.444 185.02L727.388 184.474C727.728 184.416 727.955 184.093 727.897 183.754C726.544 175.887 719.684 169.954 711.5 169.954C702.325 169.954 694.86 177.419 694.86 186.594C694.86 195.768 702.325 203.233 711.5 203.233C719.687 203.233 726.544 197.297 727.897 189.434L727.885 189.32L727.897 189.434C727.917 189.317 727.903 189.202 727.863 189.099L727.777 188.266C727.777 188.266 727.777 188.266 727.777 188.266L727.863 189.099C727.785 188.904 727.611 188.752 727.388 188.713C727.048 188.655 726.726 188.883 726.667 189.222C725.395 196.618 719.014 201.986 711.5 201.986C703.012 201.986 696.108 195.081 696.108 186.594C696.108 178.106 703.012 171.202 711.5 171.202C719.015 171.202 725.395 176.57 726.667 183.965C726.726 184.304 727.048 184.532 727.388 184.474L727.444 185.02ZM727.863 189.099L727.885 189.32L727.863 189.099C727.863 189.099 727.863 189.099 727.863 189.099Z" fill="black"/>
<path fill-rule="evenodd" clip-rule="evenodd" d="M688.613 186.594C688.613 173.975 698.881 163.707 711.5 163.707C724.119 163.707 734.387 173.975 734.387 186.594C734.387 196.282 728.334 204.586 719.808 207.919L719.324 208.109L721.197 213.733H725.357C727.73 213.733 729.876 215.23 730.695 217.458L736.319 232.764C736.805 234.087 736.479 235.598 735.435 236.602L735.344 236.69L734.806 238.153C733.827 240.819 731.258 242.611 728.419 242.611H694.581C691.741 242.611 689.173 240.819 688.194 238.153L687.656 236.69L687.565 236.602C686.519 235.595 686.196 234.085 686.681 232.764L692.305 217.458C693.124 215.23 695.27 213.732 697.643 213.732H701.803L703.676 208.109L703.191 207.919C694.666 204.586 688.613 196.282 688.613 186.594ZM711.5 164.955C699.568 164.955 689.861 174.662 689.861 186.594C689.861 198.534 699.579 208.233 711.5 208.233C723.515 208.233 733.139 198.446 733.139 186.594C733.139 174.662 723.432 164.955 711.5 164.955ZM719.881 213.733L718.141 208.507L717.639 208.647C713.515 209.794 709.214 209.717 705.361 208.647L704.859 208.507L703.118 213.733H719.881ZM697.642 214.981C695.789 214.981 694.116 216.148 693.476 217.888L687.852 233.194C687.278 234.756 688.45 236.364 690.064 236.364H700.907L702.086 233.155C702.521 231.97 703.664 231.173 704.926 231.173H708.765C709.11 231.173 709.389 231.452 709.389 231.797C709.389 232.142 709.11 232.421 708.765 232.421H704.926C704.183 232.421 703.513 232.888 703.257 233.585L702.236 236.364H720.764L719.743 233.586C719.487 232.888 718.817 232.421 718.074 232.421H714.234C713.89 232.421 713.61 232.142 713.61 231.797C713.61 231.452 713.89 231.173 714.234 231.173H718.074C719.336 231.173 720.479 231.97 720.914 233.155L722.093 236.364H732.936C734.551 236.364 735.721 234.754 735.147 233.194L729.523 217.888C728.884 216.148 727.211 214.981 725.357 214.981H697.642ZM733.754 237.611H689.246L689.676 238.417C690.631 240.206 692.516 241.363 694.581 241.363H728.419C730.484 241.363 732.369 240.206 733.324 238.417L733.754 237.611Z" fill="black"/>
</g>
<defs>
<linearGradient id="paint0_linear" x1="468.355" y1="223.06" x2="715.77" y2="223.06" gradientUnits="userSpaceOnUse">
<stop stop-color="#184E9C"/>
<stop offset="0.8501" stop-color="#1F6BD8"/>
</linearGradient>
<linearGradient id="paint1_linear" x1="701.341" y1="234.395" x2="721.654" y2="234.395" gradientUnits="userSpaceOnUse">
<stop stop-color="#184E9C"/>
<stop offset="0.8501" stop-color="#1F6BD8"/>
</linearGradient>
<clipPath id="clip0">
<rect width="80" height="80" fill="white" transform="translate(671.5 163.159)"/>
</clipPath>
</defs>
</svg>
